export var transChordsLonger = m.data([{"pitch":54,"duration":8,"velocity":0.7086614173228346,"time":0,"color":"yellow"},{"pitch":58,"duration":8,"velocity":0.7086614173228346,"time":0,"color":"yellow"},{"pitch":61,"duration":8,"velocity":0.7086614173228346,"time":0,"color":"yellow"},{"pitch":56,"duration":8,"velocity":0.7086614173228346,"time":8,"color":"yellow"},{"pitch":59,"duration":8,"velocity":0.7086614173228346,"time":8,"color":"yellow"},{"pitch":63,"duration":8,"velocity":0.7086614173228346,"time":8,"color":"yellow"},{"pitch":54,"duration":8,"velocity":0.7086614173228346,"time":16,"color":"yellow"},{"pitch":58,"duration":8,"velocity":0.7086614173228346,"time":16,"color":"yellow"},{"pitch":61,"duration":8,"velocity":0.7086614173228346,"time":16,"color":"yellow"},{"pitch":56,"duration":8,"velocity":0.7086614173228346,"time":24,"color":"yellow"},{"pitch":59,"duration":8,"velocity":0.7086614173228346,"time":24,"color":"yellow"},{"pitch":63,"duration":8,"velocity":0.7086614173228346,"time":24,"color":"yellow"},{"pitch":59,"duration":4,"velocity":0.6771653543307087,"time":32,"color":"yellow"},{"pitch":63,"duration":4,"velocity":0.6771653543307087,"time":32,"color":"yellow"},{"pitch":66,"duration":4,"velocity":0.6771653543307087,"time":32,"color":"yellow"},{"pitch":56,"duration":4,"velocity":0.7086614173228346,"time":36,"color":"yellow"},{"pitch":59,"duration":4,"velocity":0.7086614173228346,"time":36,"color":"yellow"},{"pitch":63,"duration":4,"velocity":0.7086614173228346,"time":36,"color":"yellow"},{"pitch":49,"duration":8,"velocity":0.6771653543307087,"time":40,"color":"yellow"},{"pitch":53,"duration":8,"velocity":0.6771653543307087,"time":40,"color":"yellow"},{"pitch":56,"duration":8,"velocity":0.6771653543307087,"time":40,"color":"yellow"},{"pitch":59,"duration":4,"velocity":0.6771653543307087,"time":48,"color":"yellow"},{"pitch":63,"duration":4,"velocity":0.6771653543307087,"time":48,"color":"yellow"},{"pitch":56,"duration":4,"velocity":0.7086614173228346,"time":52,"color":"yellow"},{"pitch":59,"duration":4,"velocity":0.7086614173228346,"time":52,"color":"yellow"},{"pitch":63,"duration":4,"velocity":0.7086614173228346,"time":52,"color":"yellow"},{"pitch":49,"duration":8,"velocity":0.6771653543307087,"time":56,"color":"yellow"},{"pitch":53,"duration":8,"velocity":0.6771653543307087,"time":56,"color":"yellow"},{"pitch":56,"duration":8,"velocity":0.6771653543307087,"time":56,"color":"yellow"}]).loopLength(64);