export var modelMelody = m().data([
  {
    "pitch": 88,
    "duration": 0.5774999761581421,
    "velocity": 0.7874015748031497,
    "time": 0,
    "color": "yellow"
  },
  {
    "pitch": 84,
    "duration": 0.4024999940395355,
    "velocity": 0.7874015748031497,
    "time": 0.5,
    "color": "yellow"
  },
  {
    "pitch": 81,
    "duration": 0.602500011920929,
    "velocity": 0.7874015748031497,
    "time": 1,
    "color": "yellow"
  },
  {
    "pitch": 84,
    "duration": 0.43999998807907104,
    "velocity": 0.7874015748031497,
    "time": 1.5,
    "color": "yellow"
  },
  {
    "pitch": 88,
    "duration": 0.5275000238418579,
    "velocity": 0.7874015748031497,
    "time": 2,
    "color": "yellow"
  },
  {
    "pitch": 84,
    "duration": 0.5066666507720947,
    "velocity": 0.7874015748031497,
    "time": 2.5,
    "color": "yellow"
  },
  {
    "pitch": 88,
    "duration": 0.6191666626930237,
    "velocity": 0.7874015748031497,
    "time": 3,
    "color": "yellow"
  },
  {
    "pitch": 89,
    "duration": 0.540000011920929,
    "velocity": 0.7874015748031497,
    "time": 3.5,
    "color": "yellow"
  },
  {
    "pitch": 88,
    "duration": 0.6941666507720947,
    "velocity": 0.7874015748031497,
    "time": 4,
    "color": "yellow"
  },
  {
    "pitch": 83,
    "duration": 0.4649999940395355,
    "velocity": 0.7874015748031497,
    "time": 4.5,
    "color": "yellow"
  },
  {
    "pitch": 79,
    "duration": 0.5441666746139526,
    "velocity": 0.7874015748031497,
    "time": 5,
    "color": "yellow"
  },
  {
    "pitch": 83,
    "duration": 0.4483333432674408,
    "velocity": 0.7874015748031497,
    "time": 5.5,
    "color": "yellow"
  },
  {
    "pitch": 88,
    "duration": 0.9441666507720947,
    "velocity": 0.7874015748031497,
    "time": 6,
    "color": "yellow"
  },
  {
    "pitch": 86,
    "duration": 0.99,
    "velocity": 0.7874015748031497,
    "time": 7,
    "color": "yellow"
  },
  {
    "pitch": 88,
    "duration": 0.6066666746139526,
    "velocity": 0.7874015748031497,
    "time": 8,
    "color": "yellow"
  },
  {
    "pitch": 84,
    "duration": 0.4108333194255829,
    "velocity": 0.7874015748031497,
    "time": 8.5,
    "color": "yellow"
  },
  {
    "pitch": 81,
    "duration": 0.3858333432674408,
    "velocity": 0.7874015748031497,
    "time": 9,
    "color": "yellow"
  },
  {
    "pitch": 84,
    "duration": 0.5608333253860474,
    "velocity": 0.7874015748031497,
    "time": 9.5,
    "color": "yellow"
  },
  {
    "pitch": 88,
    "duration": 0.5816666388511658,
    "velocity": 0.7874015748031497,
    "time": 10,
    "color": "yellow"
  },
  {
    "pitch": 84,
    "duration": 0.4441666805744171,
    "velocity": 0.7874015748031497,
    "time": 10.5,
    "color": "yellow"
  },
  {
    "pitch": 88,
    "duration": 0.5816666388511658,
    "velocity": 0.7874015748031497,
    "time": 11,
    "color": "yellow"
  },
  {
    "pitch": 89,
    "duration": 0.502499988079071,
    "velocity": 0.7874015748031497,
    "time": 11.5,
    "color": "yellow"
  },
  {
    "pitch": 88,
    "duration": 0.8066666626930237,
    "velocity": 0.7874015748031497,
    "time": 12,
    "color": "yellow"
  },
  {
    "pitch": 83,
    "duration": 0.39833333134651183,
    "velocity": 0.7874015748031497,
    "time": 12.5,
    "color": "yellow"
  },
  {
    "pitch": 79,
    "duration": 0.5108333134651184,
    "velocity": 0.7874015748031497,
    "time": 13,
    "color": "yellow"
  },
  {
    "pitch": 83,
    "duration": 0.3858333432674408,
    "velocity": 0.7874015748031497,
    "time": 13.5,
    "color": "yellow"
  },
  {
    "pitch": 88,
    "duration": 1.3608332777023315,
    "velocity": 0.7874015748031497,
    "time": 14,
    "color": "yellow"
  },
  {
    "pitch": 91,
    "duration": 0.29000001192092895,
    "velocity": 0.7874015748031497,
    "time": 15.5,
    "color": "yellow"
  },
  {
    "pitch": 88,
    "duration": 0.5774999761581421,
    "velocity": 0.7874015748031497,
    "time": 16,
    "color": "yellow"
  },
  {
    "pitch": 84,
    "duration": 0.4024999940395355,
    "velocity": 0.7874015748031497,
    "time": 16.5,
    "color": "yellow"
  },
  {
    "pitch": 81,
    "duration": 0.602500011920929,
    "velocity": 0.7874015748031497,
    "time": 17,
    "color": "yellow"
  },
  {
    "pitch": 84,
    "duration": 0.43999998807907104,
    "velocity": 0.7874015748031497,
    "time": 17.5,
    "color": "yellow"
  },
  {
    "pitch": 88,
    "duration": 0.5275000238418579,
    "velocity": 0.7874015748031497,
    "time": 18,
    "color": "yellow"
  },
  {
    "pitch": 84,
    "duration": 0.5066666507720947,
    "velocity": 0.7874015748031497,
    "time": 18.5,
    "color": "yellow"
  },
  {
    "pitch": 88,
    "duration": 0.6191666626930237,
    "velocity": 0.7874015748031497,
    "time": 19,
    "color": "yellow"
  },
  {
    "pitch": 89,
    "duration": 0.540000011920929,
    "velocity": 0.7874015748031497,
    "time": 19.5,
    "color": "yellow"
  },
  {
    "pitch": 88,
    "duration": 0.6941666507720947,
    "velocity": 0.7874015748031497,
    "time": 20,
    "color": "yellow"
  },
  {
    "pitch": 83,
    "duration": 0.4649999940395355,
    "velocity": 0.7874015748031497,
    "time": 20.5,
    "color": "yellow"
  },
  {
    "pitch": 79,
    "duration": 0.5441666746139526,
    "velocity": 0.7874015748031497,
    "time": 21,
    "color": "yellow"
  },
  {
    "pitch": 83,
    "duration": 0.4483333432674408,
    "velocity": 0.7874015748031497,
    "time": 21.5,
    "color": "yellow"
  },
  {
    "pitch": 88,
    "duration": 0.9441666507720947,
    "velocity": 0.7874015748031497,
    "time": 22,
    "color": "yellow"
  },
  {
    "pitch": 86,
    "duration": 0.99,
    "velocity": 0.7874015748031497,
    "time": 23,
    "color": "yellow"
  },
  {
    "pitch": 88,
    "duration": 0.6066666746139526,
    "velocity": 0.7874015748031497,
    "time": 24,
    "color": "yellow"
  },
  {
    "pitch": 84,
    "duration": 0.4108333194255829,
    "velocity": 0.7874015748031497,
    "time": 24.5,
    "color": "yellow"
  },
  {
    "pitch": 81,
    "duration": 0.3858333432674408,
    "velocity": 0.7874015748031497,
    "time": 25,
    "color": "yellow"
  },
  {
    "pitch": 84,
    "duration": 0.5608333253860474,
    "velocity": 0.7874015748031497,
    "time": 25.5,
    "color": "yellow"
  },
  {
    "pitch": 88,
    "duration": 0.5816666388511658,
    "velocity": 0.7874015748031497,
    "time": 26,
    "color": "yellow"
  },
  {
    "pitch": 84,
    "duration": 0.4441666805744171,
    "velocity": 0.7874015748031497,
    "time": 26.5,
    "color": "yellow"
  },
  {
    "pitch": 88,
    "duration": 0.5816666388511658,
    "velocity": 0.7874015748031497,
    "time": 27,
    "color": "yellow"
  },
  {
    "pitch": 89,
    "duration": 0.502499988079071,
    "velocity": 0.7874015748031497,
    "time": 27.5,
    "color": "yellow"
  },
  {
    "pitch": 88,
    "duration": 0.8066666626930237,
    "velocity": 0.7874015748031497,
    "time": 28,
    "color": "yellow"
  },
  {
    "pitch": 83,
    "duration": 0.39833333134651183,
    "velocity": 0.7874015748031497,
    "time": 28.5,
    "color": "yellow"
  },
  {
    "pitch": 79,
    "duration": 0.5108333134651184,
    "velocity": 0.7874015748031497,
    "time": 29,
    "color": "yellow"
  },
  {
    "pitch": 83,
    "duration": 0.3858333432674408,
    "velocity": 0.7874015748031497,
    "time": 29.5,
    "color": "yellow"
  },
  {
    "pitch": 88,
    "duration": 1.3608332777023315,
    "velocity": 0.7874015748031497,
    "time": 30,
    "color": "yellow"
  },
  {
    "pitch": 91,
    "duration": 0.29000001192092895,
    "velocity": 0.7874015748031497,
    "time": 31.5,
    "color": "yellow"
  },
  {
    "pitch": 88,
    "duration": 0.5774999761581421,
    "velocity": 0.7874015748031497,
    "time": 32,
    "color": "yellow"
  },
  {
    "pitch": 84,
    "duration": 0.4024999940395355,
    "velocity": 0.7874015748031497,
    "time": 32.5,
    "color": "yellow"
  },
  {
    "pitch": 81,
    "duration": 0.602500011920929,
    "velocity": 0.7874015748031497,
    "time": 33,
    "color": "yellow"
  },
  {
    "pitch": 84,
    "duration": 0.43999998807907104,
    "velocity": 0.7874015748031497,
    "time": 33.5,
    "color": "yellow"
  },
  {
    "pitch": 88,
    "duration": 0.5275000238418579,
    "velocity": 0.7874015748031497,
    "time": 34,
    "color": "yellow"
  },
  {
    "pitch": 84,
    "duration": 0.5066666507720947,
    "velocity": 0.7874015748031497,
    "time": 34.5,
    "color": "yellow"
  },
  {
    "pitch": 88,
    "duration": 0.6191666626930237,
    "velocity": 0.7874015748031497,
    "time": 35,
    "color": "yellow"
  },
  {
    "pitch": 89,
    "duration": 0.540000011920929,
    "velocity": 0.7874015748031497,
    "time": 35.5,
    "color": "yellow"
  },
  {
    "pitch": 88,
    "duration": 0.6941666507720947,
    "velocity": 0.7874015748031497,
    "time": 36,
    "color": "yellow"
  },
  {
    "pitch": 83,
    "duration": 0.4649999940395355,
    "velocity": 0.7874015748031497,
    "time": 36.5,
    "color": "yellow"
  },
  {
    "pitch": 79,
    "duration": 0.5441666746139526,
    "velocity": 0.7874015748031497,
    "time": 37,
    "color": "yellow"
  },
  {
    "pitch": 83,
    "duration": 0.4483333432674408,
    "velocity": 0.7874015748031497,
    "time": 37.5,
    "color": "yellow"
  },
  {
    "pitch": 88,
    "duration": 0.9441666507720947,
    "velocity": 0.7874015748031497,
    "time": 38,
    "color": "yellow"
  },
  {
    "pitch": 86,
    "duration": 0.99,
    "velocity": 0.7874015748031497,
    "time": 39,
    "color": "yellow"
  },
  {
    "pitch": 88,
    "duration": 0.6066666746139526,
    "velocity": 0.7874015748031497,
    "time": 40,
    "color": "yellow"
  },
  {
    "pitch": 84,
    "duration": 0.4108333194255829,
    "velocity": 0.7874015748031497,
    "time": 40.5,
    "color": "yellow"
  },
  {
    "pitch": 81,
    "duration": 0.3858333432674408,
    "velocity": 0.7874015748031497,
    "time": 41,
    "color": "yellow"
  },
  {
    "pitch": 84,
    "duration": 0.5608333253860474,
    "velocity": 0.7874015748031497,
    "time": 41.5,
    "color": "yellow"
  },
  {
    "pitch": 88,
    "duration": 0.5816666388511658,
    "velocity": 0.7874015748031497,
    "time": 42,
    "color": "yellow"
  },
  {
    "pitch": 84,
    "duration": 0.4441666805744171,
    "velocity": 0.7874015748031497,
    "time": 42.5,
    "color": "yellow"
  },
  {
    "pitch": 88,
    "duration": 0.5816666388511658,
    "velocity": 0.7874015748031497,
    "time": 43,
    "color": "yellow"
  },
  {
    "pitch": 89,
    "duration": 0.502499988079071,
    "velocity": 0.7874015748031497,
    "time": 43.5,
    "color": "yellow"
  },
  {
    "pitch": 88,
    "duration": 0.8066666626930237,
    "velocity": 0.7874015748031497,
    "time": 44,
    "color": "yellow"
  },
  {
    "pitch": 83,
    "duration": 0.39833333134651183,
    "velocity": 0.7874015748031497,
    "time": 44.5,
    "color": "yellow"
  },
  {
    "pitch": 79,
    "duration": 0.5108333134651184,
    "velocity": 0.7874015748031497,
    "time": 45,
    "color": "yellow"
  },
  {
    "pitch": 83,
    "duration": 0.3858333432674408,
    "velocity": 0.7874015748031497,
    "time": 45.5,
    "color": "yellow"
  },
  {
    "pitch": 88,
    "duration": 1.3608332777023315,
    "velocity": 0.7874015748031497,
    "time": 46,
    "color": "yellow"
  },
  {
    "pitch": 91,
    "duration": 0.29000001192092895,
    "velocity": 0.7874015748031497,
    "time": 47.5,
    "color": "yellow"
  },
  {
    "pitch": 88,
    "duration": 0.5774999761581421,
    "velocity": 0.7874015748031497,
    "time": 48,
    "color": "yellow"
  },
  {
    "pitch": 84,
    "duration": 0.4024999940395355,
    "velocity": 0.7874015748031497,
    "time": 48.5,
    "color": "yellow"
  },
  {
    "pitch": 81,
    "duration": 0.602500011920929,
    "velocity": 0.7874015748031497,
    "time": 49,
    "color": "yellow"
  },
  {
    "pitch": 84,
    "duration": 0.43999998807907104,
    "velocity": 0.7874015748031497,
    "time": 49.5,
    "color": "yellow"
  },
  {
    "pitch": 88,
    "duration": 0.5275000238418579,
    "velocity": 0.7874015748031497,
    "time": 50,
    "color": "yellow"
  },
  {
    "pitch": 84,
    "duration": 0.5066666507720947,
    "velocity": 0.7874015748031497,
    "time": 50.5,
    "color": "yellow"
  },
  {
    "pitch": 88,
    "duration": 0.6191666626930237,
    "velocity": 0.7874015748031497,
    "time": 51,
    "color": "yellow"
  },
  {
    "pitch": 89,
    "duration": 0.540000011920929,
    "velocity": 0.7874015748031497,
    "time": 51.5,
    "color": "yellow"
  },
  {
    "pitch": 88,
    "duration": 0.6941666507720947,
    "velocity": 0.7874015748031497,
    "time": 52,
    "color": "yellow"
  },
  {
    "pitch": 83,
    "duration": 0.4649999940395355,
    "velocity": 0.7874015748031497,
    "time": 52.5,
    "color": "yellow"
  },
  {
    "pitch": 79,
    "duration": 0.5441666746139526,
    "velocity": 0.7874015748031497,
    "time": 53,
    "color": "yellow"
  },
  {
    "pitch": 83,
    "duration": 0.4483333432674408,
    "velocity": 0.7874015748031497,
    "time": 53.5,
    "color": "yellow"
  },
  {
    "pitch": 88,
    "duration": 0.9441666507720947,
    "velocity": 0.7874015748031497,
    "time": 54,
    "color": "yellow"
  },
  {
    "pitch": 86,
    "duration": 0.99,
    "velocity": 0.7874015748031497,
    "time": 55,
    "color": "yellow"
  },
  {
    "pitch": 88,
    "duration": 0.6066666746139526,
    "velocity": 0.7874015748031497,
    "time": 56,
    "color": "yellow"
  },
  {
    "pitch": 84,
    "duration": 0.4108333194255829,
    "velocity": 0.7874015748031497,
    "time": 56.5,
    "color": "yellow"
  },
  {
    "pitch": 81,
    "duration": 0.3858333432674408,
    "velocity": 0.7874015748031497,
    "time": 57,
    "color": "yellow"
  },
  {
    "pitch": 84,
    "duration": 0.5608333253860474,
    "velocity": 0.7874015748031497,
    "time": 57.5,
    "color": "yellow"
  },
  {
    "pitch": 88,
    "duration": 0.5816666388511658,
    "velocity": 0.7874015748031497,
    "time": 58,
    "color": "yellow"
  },
  {
    "pitch": 84,
    "duration": 0.4441666805744171,
    "velocity": 0.7874015748031497,
    "time": 58.5,
    "color": "yellow"
  },
  {
    "pitch": 88,
    "duration": 0.5816666388511658,
    "velocity": 0.7874015748031497,
    "time": 59,
    "color": "yellow"
  },
  {
    "pitch": 89,
    "duration": 0.502499988079071,
    "velocity": 0.7874015748031497,
    "time": 59.5,
    "color": "yellow"
  },
  {
    "pitch": 88,
    "duration": 0.8066666626930237,
    "velocity": 0.7874015748031497,
    "time": 60,
    "color": "yellow"
  },
  {
    "pitch": 83,
    "duration": 0.39833333134651183,
    "velocity": 0.7874015748031497,
    "time": 60.5,
    "color": "yellow"
  },
  {
    "pitch": 79,
    "duration": 0.5108333134651184,
    "velocity": 0.7874015748031497,
    "time": 61,
    "color": "yellow"
  },
  {
    "pitch": 83,
    "duration": 0.3858333432674408,
    "velocity": 0.7874015748031497,
    "time": 61.5,
    "color": "yellow"
  },
  {
    "pitch": 88,
    "duration": 1.3608332777023315,
    "velocity": 0.7874015748031497,
    "time": 62,
    "color": "yellow"
  }
]).loopLength(64);