export var raouniChords = m().data([
  {
    "pitch": 48,
    "duration": 1,
    "velocity": 0.7952755905511811,
    "time": 0,
    "color": "yellow"
  },
  {
    "pitch": 55,
    "duration": 1,
    "velocity": 0.7952755905511811,
    "time": 0,
    "color": "yellow"
  },
  {
    "pitch": 62,
    "duration": 1,
    "velocity": 0.7952755905511811,
    "time": 0,
    "color": "yellow"
  },
  {
    "pitch": 67,
    "duration": 1,
    "velocity": 0.7952755905511811,
    "time": 0,
    "color": "yellow"
  },
  {
    "pitch": 46,
    "duration": 1,
    "velocity": 0.7952755905511811,
    "time": 1,
    "color": "yellow"
  },
  {
    "pitch": 53,
    "duration": 1,
    "velocity": 0.7952755905511811,
    "time": 1,
    "color": "yellow"
  },
  {
    "pitch": 63,
    "duration": 1,
    "velocity": 0.7952755905511811,
    "time": 1,
    "color": "yellow"
  },
  {
    "pitch": 46,
    "duration": 1,
    "velocity": 0.7874015748031497,
    "time": 2,
    "color": "yellow"
  },
  {
    "pitch": 51,
    "duration": 1,
    "velocity": 0.7874015748031497,
    "time": 2,
    "color": "yellow"
  },
  {
    "pitch": 58,
    "duration": 1,
    "velocity": 0.7874015748031497,
    "time": 2,
    "color": "yellow"
  },
  {
    "pitch": 63,
    "duration": 1,
    "velocity": 0.7874015748031497,
    "time": 2,
    "color": "yellow"
  },
  {
    "pitch": 43,
    "duration": 1,
    "velocity": 0.7874015748031497,
    "time": 3,
    "color": "yellow"
  },
  {
    "pitch": 53,
    "duration": 1,
    "velocity": 0.8031496062992126,
    "time": 3,
    "color": "yellow"
  },
  {
    "pitch": 59,
    "duration": 1,
    "velocity": 0.7874015748031497,
    "time": 3,
    "color": "yellow"
  },
  {
    "pitch": 62,
    "duration": 1,
    "velocity": 0.8031496062992126,
    "time": 3,
    "color": "yellow"
  },
  {
    "pitch": 67,
    "duration": 1,
    "velocity": 0.7874015748031497,
    "time": 3,
    "color": "yellow"
  },
  {
    "pitch": 50,
    "duration": 1,
    "velocity": 0.8031496062992126,
    "time": 4,
    "color": "yellow"
  },
  {
    "pitch": 55,
    "duration": 1,
    "velocity": 0.7952755905511811,
    "time": 4,
    "color": "yellow"
  },
  {
    "pitch": 62,
    "duration": 1,
    "velocity": 0.7952755905511811,
    "time": 4,
    "color": "yellow"
  },
  {
    "pitch": 65,
    "duration": 1,
    "velocity": 0.7952755905511811,
    "time": 4,
    "color": "yellow"
  },
  {
    "pitch": 43,
    "duration": 1,
    "velocity": 0.8031496062992126,
    "time": 5,
    "color": "yellow"
  },
  {
    "pitch": 50,
    "duration": 1,
    "velocity": 0.8031496062992126,
    "time": 5,
    "color": "yellow"
  },
  {
    "pitch": 58,
    "duration": 1,
    "velocity": 0.8031496062992126,
    "time": 5,
    "color": "yellow"
  },
  {
    "pitch": 62,
    "duration": 1,
    "velocity": 0.8031496062992126,
    "time": 5,
    "color": "yellow"
  },
  {
    "pitch": 67,
    "duration": 1,
    "velocity": 0.8031496062992126,
    "time": 5,
    "color": "yellow"
  },
  {
    "pitch": 48,
    "duration": 1,
    "velocity": 0.8031496062992126,
    "time": 6,
    "color": "yellow"
  },
  {
    "pitch": 55,
    "duration": 1,
    "velocity": 0.8031496062992126,
    "time": 6,
    "color": "yellow"
  },
  {
    "pitch": 60,
    "duration": 1,
    "velocity": 0.8031496062992126,
    "time": 6,
    "color": "yellow"
  },
  {
    "pitch": 63,
    "duration": 1,
    "velocity": 0.8031496062992126,
    "time": 6,
    "color": "yellow"
  },
  {
    "pitch": 46,
    "duration": 1,
    "velocity": 0.8031496062992126,
    "time": 7,
    "color": "yellow"
  },
  {
    "pitch": 58,
    "duration": 1,
    "velocity": 0.8031496062992126,
    "time": 7,
    "color": "yellow"
  },
  {
    "pitch": 63,
    "duration": 1,
    "velocity": 0.8031496062992126,
    "time": 7,
    "color": "yellow"
  },
  {
    "pitch": 70,
    "duration": 1,
    "velocity": 0.8031496062992126,
    "time": 7,
    "color": "yellow"
  }
]).loopLength(8);