export var flauta = m().data([
  {
    "pitch": 76,
    "duration": 0.49455726146698,
    "velocity": 0.6299212598425197,
    "time": 0,
    "color": "yellow"
  },
  {
    "pitch": 72,
    "duration": 0.4372296929359436,
    "velocity": 0.6535433070866141,
    "time": 0.4908508062362671,
    "color": "yellow"
  },
  {
    "pitch": 72,
    "duration": 0.28842848539352417,
    "velocity": 0.7007874015748031,
    "time": 0.9846830368041992,
    "color": "yellow"
  },
  {
    "pitch": 76,
    "duration": 0.2941727638244629,
    "velocity": 0.7716535433070866,
    "time": 1.5,
    "color": "yellow"
  },
  {
    "pitch": 76,
    "duration": 0.49455726146698,
    "velocity": 0.6299212598425197,
    "time": 1.9881181716918945,
    "color": "yellow"
  },
  {
    "pitch": 72,
    "duration": 0.4630158841609955,
    "velocity": 0.6929133858267716,
    "time": 2.483717918395996,
    "color": "yellow"
  },
  {
    "pitch": 76,
    "duration": 0.4878103733062744,
    "velocity": 0.7716535433070866,
    "time": 2.997036933898926,
    "color": "yellow"
  },
  {
    "pitch": 72,
    "duration": 0.5119196176528931,
    "velocity": 0.6535433070866141,
    "time": 3.4926815032958984,
    "color": "yellow"
  },
  {
    "pitch": 76,
    "duration": 0.46363532543182373,
    "velocity": 0.7795275590551181,
    "time": 3.9955320358276367,
    "color": "yellow"
  },
  {
    "pitch": 72,
    "duration": 0.5289536118507385,
    "velocity": 0.6850393700787402,
    "time": 4.489273548126221,
    "color": "yellow"
  },
  {
    "pitch": 72,
    "duration": 0.48082491755485535,
    "velocity": 0.6535433070866141,
    "time": 5.018227577209473,
    "color": "yellow"
  },
  {
    "pitch": 76,
    "duration": 0.4691787362098694,
    "velocity": 0.6299212598425197,
    "time": 5.493932247161865,
    "color": "yellow"
  },
  {
    "pitch": 72,
    "duration": 0.4842698872089386,
    "velocity": 0.6299212598425197,
    "time": 5.989305019378662,
    "color": "yellow"
  },
  {
    "pitch": 76,
    "duration": 0.5000408291816711,
    "velocity": 0.7716535433070866,
    "time": 6.483998775482178,
    "color": "yellow"
  },
  {
    "pitch": 72,
    "duration": 0.511414647102356,
    "velocity": 0.6929133858267716,
    "time": 7.007061004638672,
    "color": "yellow"
  },
  {
    "pitch": 76,
    "duration": 0.49582579731941223,
    "velocity": 0.7716535433070866,
    "time": 7.48593807220459,
    "color": "yellow"
  },
  {
    "pitch": 77,
    "duration": 0.42648938298225403,
    "velocity": 0.7795275590551181,
    "time": 7.996129989624023,
    "color": "yellow"
  },
  {
    "pitch": 74,
    "duration": 0.4853573441505432,
    "velocity": 0.6535433070866141,
    "time": 8.494132041931152,
    "color": "yellow"
  },
  {
    "pitch": 77,
    "duration": 0.5029863119125366,
    "velocity": 0.6299212598425197,
    "time": 8.963764190673828,
    "color": "yellow"
  },
  {
    "pitch": 74,
    "duration": 0.4839756488800049,
    "velocity": 0.6850393700787402,
    "time": 9.483155250549316,
    "color": "yellow"
  },
  {
    "pitch": 77,
    "duration": 0.5029863119125366,
    "velocity": 0.6299212598425197,
    "time": 10,
    "color": "yellow"
  },
  {
    "pitch": 74,
    "duration": 0.5218721628189087,
    "velocity": 0.7086614173228346,
    "time": 10.47834300994873,
    "color": "yellow"
  },
  {
    "pitch": 74,
    "duration": 0.5218721628189087,
    "velocity": 0.7086614173228346,
    "time": 11.000214576721191,
    "color": "yellow"
  },
  {
    "pitch": 77,
    "duration": 0.49778372049331665,
    "velocity": 0.8031496062992126,
    "time": 11.502216339111328,
    "color": "yellow"
  },
  {
    "pitch": 77,
    "duration": 0.49778372049331665,
    "velocity": 0.6535433070866141,
    "time": 12,
    "color": "yellow"
  },
  {
    "pitch": 71,
    "duration": 0.4915878474712372,
    "velocity": 0.6614173228346457,
    "time": 12.496044158935547,
    "color": "yellow"
  },
  {
    "pitch": 76,
    "duration": 0.4278492331504822,
    "velocity": 0.7716535433070866,
    "time": 13.006598472595215,
    "color": "yellow"
  },
  {
    "pitch": 71,
    "duration": 0.3956291079521179,
    "velocity": 0.6141732283464567,
    "time": 13.526081085205078,
    "color": "yellow"
  },
  {
    "pitch": 74,
    "duration": 0.4595261514186859,
    "velocity": 0.6929133858267716,
    "time": 13.97264575958252,
    "color": "yellow"
  },
  {
    "pitch": 71,
    "duration": 0.4826509356498718,
    "velocity": 0.6614173228346457,
    "time": 14.476493835449219,
    "color": "yellow"
  },
  {
    "pitch": 76,
    "duration": 0.48708972334861755,
    "velocity": 0.7716535433070866,
    "time": 14.971186637878418,
    "color": "yellow"
  },
  {
    "pitch": 74,
    "duration": 0.5158430337905884,
    "velocity": 0.7086614173228346,
    "time": 15.487451553344727,
    "color": "yellow"
  }
]).loopLength(16);