export var Township = m().data([
  {
    "pitch": 91,
    "duration": 0.32744847774505614,
    "velocity": 0.8188976377952756,
    "time": 0.11522644013166428,
    "color": "yellow"
  },
  {
    "pitch": 72,
    "duration": 0.16599014937877654,
    "velocity": 0.7322834645669292,
    "time": 0.4691358208656311,
    "color": "yellow"
  },
  {
    "pitch": 67,
    "duration": 0.3325283133983612,
    "velocity": 0.6771653543307087,
    "time": 0.6451259851455688,
    "color": "yellow"
  },
  {
    "pitch": 67,
    "duration": 0.20183763444423675,
    "velocity": 0.6692913385826772,
    "time": 0.9909977912902832,
    "color": "yellow"
  },
  {
    "pitch": 72,
    "duration": 0.30156760454177856,
    "velocity": 0.6850393700787402,
    "time": 1.2028356790542603,
    "color": "yellow"
  },
  {
    "pitch": 72,
    "duration": 0.5202855968475342,
    "velocity": 0.7007874015748031,
    "time": 1.5207048654556274,
    "color": "yellow"
  },
  {
    "pitch": 68,
    "duration": 0.16123189568519591,
    "velocity": 0.7244094488188977,
    "time": 2.050990104675293,
    "color": "yellow"
  },
  {
    "pitch": 67,
    "duration": 0.6901349925994873,
    "velocity": 0.6929133858267716,
    "time": 2.2266268730163574,
    "color": "yellow"
  },
  {
    "pitch": 91,
    "duration": 0.34468074679374694,
    "velocity": 0.7874015748031497,
    "time": 2.926762104034424,
    "color": "yellow"
  },
  {
    "pitch": 67,
    "duration": 1.111849536895752,
    "velocity": 0.6692913385826772,
    "time": 3.281442880630493,
    "color": "yellow"
  },
  {
    "pitch": 68,
    "duration": 0.3864124321937561,
    "velocity": 0.7007874015748031,
    "time": 5.700488090515137,
    "color": "yellow"
  },
  {
    "pitch": 87,
    "duration": 0.47746150732040404,
    "velocity": 0.6614173228346457,
    "time": 6.096900939941406,
    "color": "yellow"
  },
  {
    "pitch": 68,
    "duration": 0.19097090303897857,
    "velocity": 0.5669291338582677,
    "time": 6.5891523361206055,
    "color": "yellow"
  },
  {
    "pitch": 68,
    "duration": 0.33741535782814025,
    "velocity": 0.6850393700787402,
    "time": 6.79661750793457,
    "color": "yellow"
  },
  {
    "pitch": 68,
    "duration": 0.5117660069465637,
    "velocity": 0.6614173228346457,
    "time": 7.147247314453125,
    "color": "yellow"
  },
  {
    "pitch": 87,
    "duration": 0.14814654529094695,
    "velocity": 0.33858267716535434,
    "time": 7.669013977050781,
    "color": "yellow"
  },
  {
    "pitch": 65,
    "duration": 0.3445844852924347,
    "velocity": 0.6771653543307087,
    "time": 7.851176738739014,
    "color": "yellow"
  },
  {
    "pitch": 68,
    "duration": 0.3322062397003174,
    "velocity": 0.6929133858267716,
    "time": 8.209233283996582,
    "color": "yellow"
  },
  {
    "pitch": 68,
    "duration": 0.5890868210792541,
    "velocity": 0.6929133858267716,
    "time": 8.553175926208496,
    "color": "yellow"
  },
  {
    "pitch": 63,
    "duration": 0.32902400732040404,
    "velocity": 0.6929133858267716,
    "time": 9.265913963317871,
    "color": "yellow"
  },
  {
    "pitch": 63,
    "duration": 0.33921589493751525,
    "velocity": 0.7165354330708661,
    "time": 9.60963249206543,
    "color": "yellow"
  },
  {
    "pitch": 60,
    "duration": 0.3307595157623291,
    "velocity": 0.6535433070866141,
    "time": 9.963767051696777,
    "color": "yellow"
  },
  {
    "pitch": 84,
    "duration": 0.3324645662307739,
    "velocity": 0.8267716535433071,
    "time": 10.669881820678711,
    "color": "yellow"
  },
  {
    "pitch": 84,
    "duration": 0.5053028964996338,
    "velocity": 0.8110236220472441,
    "time": 11.0155611038208,
    "color": "yellow"
  },
  {
    "pitch": 84,
    "duration": 0.236914803981781,
    "velocity": 0.41732283464566927,
    "time": 11.539093971252441,
    "color": "yellow"
  }
]).loopLength(16);