export var carimboGroove = m().data([
  {
    "pitch": 36,
    "duration": 0.0625,
    "velocity": 0.6377952755905512,
    "time": 0.0019751081708818674,
    "color": "yellow"
  },
  {
    "pitch": 36,
    "duration": 0.0625,
    "velocity": 0.07086614173228346,
    "time": 0.25348740816116333,
    "color": "yellow"
  },
  {
    "pitch": 36,
    "duration": 0.0625,
    "velocity": 0.18110236220472442,
    "time": 0.4688124358654022,
    "color": "yellow"
  },
  {
    "pitch": 36,
    "duration": 0.0625,
    "velocity": 0.36220472440944884,
    "time": 0.7645375728607178,
    "color": "yellow"
  },
  {
    "pitch": 36,
    "duration": 0.0625,
    "velocity": 0.1968503937007874,
    "time": 0.9983875751495361,
    "color": "yellow"
  },
  {
    "pitch": 36,
    "duration": 0.0625,
    "velocity": 0.1968503937007874,
    "time": 1.292875051498413,
    "color": "yellow"
  },
  {
    "pitch": 36,
    "duration": 0.0625,
    "velocity": 0.09448818897637795,
    "time": 1.5277750492095947,
    "color": "yellow"
  },
  {
    "pitch": 36,
    "duration": 0.0625,
    "velocity": 0.11023622047244094,
    "time": 1.7639124393463135,
    "color": "yellow"
  },
  {
    "pitch": 36,
    "duration": 0.0625,
    "velocity": 0.7716535433070866,
    "time": 1.997575044631958,
    "color": "yellow"
  },
  {
    "pitch": 36,
    "duration": 0.0625,
    "velocity": 0.14960629921259844,
    "time": 2.2722623348236084,
    "color": "yellow"
  },
  {
    "pitch": 36,
    "duration": 0.0625,
    "velocity": 0.047244094488188976,
    "time": 2.479562520980835,
    "color": "yellow"
  },
  {
    "pitch": 36,
    "duration": 0.0625,
    "velocity": 0.2440944881889764,
    "time": 2.7109375,
    "color": "yellow"
  },
  {
    "pitch": 36,
    "duration": 0.0625,
    "velocity": 0.33858267716535434,
    "time": 2.9971375465393066,
    "color": "yellow"
  },
  {
    "pitch": 36,
    "duration": 0.0625,
    "velocity": 0.2125984251968504,
    "time": 3.2288126945495605,
    "color": "yellow"
  },
  {
    "pitch": 36,
    "duration": 0.0625,
    "velocity": 0.10236220472440945,
    "time": 3.471024990081787,
    "color": "yellow"
  },
  {
    "pitch": 36,
    "duration": 0.0625,
    "velocity": 0.2755905511811024,
    "time": 3.7383999824523926,
    "color": "yellow"
  },
  {
    "pitch": 36,
    "duration": 0.0625,
    "velocity": 0.6692913385826772,
    "time": 3.9990248680114746,
    "color": "yellow"
  },
  {
    "pitch": 36,
    "duration": 0.0625,
    "velocity": 0.1889763779527559,
    "time": 4.237299919128418,
    "color": "yellow"
  },
  {
    "pitch": 36,
    "duration": 0.0625,
    "velocity": 0.2204724409448819,
    "time": 4.461400032043457,
    "color": "yellow"
  },
  {
    "pitch": 36,
    "duration": 0.0625,
    "velocity": 0.2677165354330709,
    "time": 4.742387771606445,
    "color": "yellow"
  },
  {
    "pitch": 36,
    "duration": 0.0625,
    "velocity": 0.2125984251968504,
    "time": 4.959549903869629,
    "color": "yellow"
  },
  {
    "pitch": 36,
    "duration": 0.0625,
    "velocity": 0.2440944881889764,
    "time": 5.2573747634887695,
    "color": "yellow"
  },
  {
    "pitch": 36,
    "duration": 0.0625,
    "velocity": 0.13385826771653545,
    "time": 5.464112281799316,
    "color": "yellow"
  },
  {
    "pitch": 36,
    "duration": 0.0625,
    "velocity": 0.14173228346456693,
    "time": 5.699125289916992,
    "color": "yellow"
  },
  {
    "pitch": 36,
    "duration": 0.0625,
    "velocity": 0.49606299212598426,
    "time": 5.98018741607666,
    "color": "yellow"
  },
  {
    "pitch": 36,
    "duration": 0.0625,
    "velocity": 0.14960629921259844,
    "time": 6.281650066375732,
    "color": "yellow"
  },
  {
    "pitch": 36,
    "duration": 0.0625,
    "velocity": 0.15748031496062992,
    "time": 6.459100246429443,
    "color": "yellow"
  },
  {
    "pitch": 36,
    "duration": 0.0625,
    "velocity": 0.2677165354330709,
    "time": 6.755462646484375,
    "color": "yellow"
  },
  {
    "pitch": 36,
    "duration": 0.0625,
    "velocity": 0.2755905511811024,
    "time": 7.000412464141846,
    "color": "yellow"
  },
  {
    "pitch": 36,
    "duration": 0.0625,
    "velocity": 0.25984251968503935,
    "time": 7.278924942016602,
    "color": "yellow"
  },
  {
    "pitch": 36,
    "duration": 0.0625,
    "velocity": 0.11023622047244094,
    "time": 7.443475246429443,
    "color": "yellow"
  },
  {
    "pitch": 36,
    "duration": 0.0625,
    "velocity": 0.30708661417322836,
    "time": 7.663300037384033,
    "color": "yellow"
  },
  {
    "pitch": 36,
    "duration": 0.0625,
    "velocity": 0.8110236220472441,
    "time": 8.012237548828125,
    "color": "yellow"
  },
  {
    "pitch": 36,
    "duration": 0.0625,
    "velocity": 0.10236220472440945,
    "time": 8.243762016296387,
    "color": "yellow"
  },
  {
    "pitch": 36,
    "duration": 0.0625,
    "velocity": 0.1889763779527559,
    "time": 8.514399528503418,
    "color": "yellow"
  },
  {
    "pitch": 36,
    "duration": 0.0625,
    "velocity": 0.28346456692913385,
    "time": 8.729087829589844,
    "color": "yellow"
  },
  {
    "pitch": 36,
    "duration": 0.0625,
    "velocity": 0.3228346456692913,
    "time": 8.984874725341797,
    "color": "yellow"
  },
  {
    "pitch": 36,
    "duration": 0.0625,
    "velocity": 0.2204724409448819,
    "time": 9.271374702453613,
    "color": "yellow"
  },
  {
    "pitch": 36,
    "duration": 0.0625,
    "velocity": 0.09448818897637795,
    "time": 9.48951244354248,
    "color": "yellow"
  },
  {
    "pitch": 36,
    "duration": 0.0625,
    "velocity": 0.2992125984251969,
    "time": 9.723287582397461,
    "color": "yellow"
  },
  {
    "pitch": 36,
    "duration": 0.0625,
    "velocity": 0.6692913385826772,
    "time": 10.004124641418457,
    "color": "yellow"
  },
  {
    "pitch": 36,
    "duration": 0.0625,
    "velocity": 0.10236220472440945,
    "time": 10.277350425720215,
    "color": "yellow"
  },
  {
    "pitch": 36,
    "duration": 0.0625,
    "velocity": 0.14173228346456693,
    "time": 10.47819995880127,
    "color": "yellow"
  },
  {
    "pitch": 36,
    "duration": 0.0625,
    "velocity": 0.31496062992125984,
    "time": 10.725362777709961,
    "color": "yellow"
  },
  {
    "pitch": 36,
    "duration": 0.0625,
    "velocity": 0.31496062992125984,
    "time": 11.025212287902832,
    "color": "yellow"
  },
  {
    "pitch": 36,
    "duration": 0.0625,
    "velocity": 0.2125984251968504,
    "time": 11.228799819946289,
    "color": "yellow"
  },
  {
    "pitch": 36,
    "duration": 0.0625,
    "velocity": 0.11811023622047244,
    "time": 11.462949752807617,
    "color": "yellow"
  },
  {
    "pitch": 36,
    "duration": 0.0625,
    "velocity": 0.08661417322834646,
    "time": 11.705312728881836,
    "color": "yellow"
  },
  {
    "pitch": 36,
    "duration": 0.0625,
    "velocity": 0.44881889763779526,
    "time": 11.982287406921387,
    "color": "yellow"
  },
  {
    "pitch": 36,
    "duration": 0.0625,
    "velocity": 0.11023622047244094,
    "time": 12.260575294494629,
    "color": "yellow"
  },
  {
    "pitch": 36,
    "duration": 0.0625,
    "velocity": 0.2125984251968504,
    "time": 12.489887237548828,
    "color": "yellow"
  },
  {
    "pitch": 36,
    "duration": 0.0625,
    "velocity": 0.2755905511811024,
    "time": 12.741925239562988,
    "color": "yellow"
  },
  {
    "pitch": 36,
    "duration": 0.0625,
    "velocity": 0.2440944881889764,
    "time": 12.986724853515625,
    "color": "yellow"
  },
  {
    "pitch": 36,
    "duration": 0.0625,
    "velocity": 0.14960629921259844,
    "time": 13.293437957763672,
    "color": "yellow"
  },
  {
    "pitch": 36,
    "duration": 0.0625,
    "velocity": 0.11811023622047244,
    "time": 13.500137329101562,
    "color": "yellow"
  },
  {
    "pitch": 36,
    "duration": 0.0625,
    "velocity": 0.14960629921259844,
    "time": 13.713025093078613,
    "color": "yellow"
  },
  {
    "pitch": 36,
    "duration": 0.0625,
    "velocity": 0.49606299212598426,
    "time": 13.995399475097656,
    "color": "yellow"
  },
  {
    "pitch": 36,
    "duration": 0.0625,
    "velocity": 0.13385826771653545,
    "time": 14.278374671936035,
    "color": "yellow"
  },
  {
    "pitch": 36,
    "duration": 0.0625,
    "velocity": 0.15748031496062992,
    "time": 14.44742488861084,
    "color": "yellow"
  },
  {
    "pitch": 36,
    "duration": 0.0625,
    "velocity": 0.2677165354330709,
    "time": 14.755487442016602,
    "color": "yellow"
  },
  {
    "pitch": 36,
    "duration": 0.0625,
    "velocity": 0.23622047244094488,
    "time": 14.954500198364258,
    "color": "yellow"
  },
  {
    "pitch": 36,
    "duration": 0.0625,
    "velocity": 0.2047244094488189,
    "time": 15.265899658203125,
    "color": "yellow"
  },
  {
    "pitch": 36,
    "duration": 0.0625,
    "velocity": 0.11023622047244094,
    "time": 15.438024520874023,
    "color": "yellow"
  },
  {
    "pitch": 36,
    "duration": 0.0625,
    "velocity": 0.2440944881889764,
    "time": 15.688862800598145,
    "color": "yellow"
  },
  {
    "pitch": 36,
    "duration": 0.0625,
    "velocity": 1,
    "time": 15.982000350952148,
    "color": "yellow"
  },
  {
    "pitch": 36,
    "duration": 0.0625,
    "velocity": 0.1968503937007874,
    "time": 16.236400604248047,
    "color": "yellow"
  },
  {
    "pitch": 36,
    "duration": 0.0625,
    "velocity": 0.10236220472440945,
    "time": 16.453336715698242,
    "color": "yellow"
  },
  {
    "pitch": 36,
    "duration": 0.0625,
    "velocity": 0.23622047244094488,
    "time": 16.697425842285156,
    "color": "yellow"
  },
  {
    "pitch": 36,
    "duration": 0.0625,
    "velocity": 0.1968503937007874,
    "time": 16.959400177001953,
    "color": "yellow"
  },
  {
    "pitch": 36,
    "duration": 0.0625,
    "velocity": 0.25196850393700787,
    "time": 17.25782585144043,
    "color": "yellow"
  },
  {
    "pitch": 36,
    "duration": 0.0625,
    "velocity": 0.12598425196850394,
    "time": 17.469661712646484,
    "color": "yellow"
  },
  {
    "pitch": 36,
    "duration": 0.0625,
    "velocity": 0.30708661417322836,
    "time": 17.69938850402832,
    "color": "yellow"
  },
  {
    "pitch": 36,
    "duration": 0.0625,
    "velocity": 0.31496062992125984,
    "time": 18.02050018310547,
    "color": "yellow"
  },
  {
    "pitch": 36,
    "duration": 0.0625,
    "velocity": 0.11023622047244094,
    "time": 18.243925094604492,
    "color": "yellow"
  },
  {
    "pitch": 36,
    "duration": 0.0625,
    "velocity": 0.11811023622047244,
    "time": 18.490524291992188,
    "color": "yellow"
  },
  {
    "pitch": 36,
    "duration": 0.0625,
    "velocity": 0.25984251968503935,
    "time": 18.710575103759766,
    "color": "yellow"
  },
  {
    "pitch": 36,
    "duration": 0.0625,
    "velocity": 0.16535433070866143,
    "time": 18.97337532043457,
    "color": "yellow"
  },
  {
    "pitch": 36,
    "duration": 0.0625,
    "velocity": 0.2283464566929134,
    "time": 19.291711807250977,
    "color": "yellow"
  },
  {
    "pitch": 36,
    "duration": 0.0625,
    "velocity": 0.11811023622047244,
    "time": 19.456336975097656,
    "color": "yellow"
  },
  {
    "pitch": 36,
    "duration": 0.0625,
    "velocity": 0.25984251968503935,
    "time": 19.728961944580078,
    "color": "yellow"
  },
  {
    "pitch": 36,
    "duration": 0.0625,
    "velocity": 0.41732283464566927,
    "time": 20.002113342285156,
    "color": "yellow"
  },
  {
    "pitch": 36,
    "duration": 0.0625,
    "velocity": 0.11023622047244094,
    "time": 20.256624221801758,
    "color": "yellow"
  },
  {
    "pitch": 36,
    "duration": 0.0625,
    "velocity": 0.12598425196850394,
    "time": 20.46381187438965,
    "color": "yellow"
  },
  {
    "pitch": 36,
    "duration": 0.0625,
    "velocity": 0.2755905511811024,
    "time": 20.736513137817383,
    "color": "yellow"
  },
  {
    "pitch": 36,
    "duration": 0.0625,
    "velocity": 0.2283464566929134,
    "time": 21.032949447631836,
    "color": "yellow"
  },
  {
    "pitch": 36,
    "duration": 0.0625,
    "velocity": 0.14960629921259844,
    "time": 21.299161911010742,
    "color": "yellow"
  },
  {
    "pitch": 36,
    "duration": 0.0625,
    "velocity": 0.14173228346456693,
    "time": 21.49528694152832,
    "color": "yellow"
  },
  {
    "pitch": 36,
    "duration": 0.0625,
    "velocity": 0.14960629921259844,
    "time": 21.75246238708496,
    "color": "yellow"
  },
  {
    "pitch": 36,
    "duration": 0.0625,
    "velocity": 0.7401574803149606,
    "time": 21.99519920349121,
    "color": "yellow"
  },
  {
    "pitch": 36,
    "duration": 0.0625,
    "velocity": 0.1968503937007874,
    "time": 22.25717544555664,
    "color": "yellow"
  },
  {
    "pitch": 36,
    "duration": 0.0625,
    "velocity": 0.05511811023622047,
    "time": 22.455625534057617,
    "color": "yellow"
  },
  {
    "pitch": 36,
    "duration": 0.0625,
    "velocity": 0.2677165354330709,
    "time": 22.68366241455078,
    "color": "yellow"
  },
  {
    "pitch": 36,
    "duration": 0.0625,
    "velocity": 0.2125984251968504,
    "time": 22.98572540283203,
    "color": "yellow"
  },
  {
    "pitch": 36,
    "duration": 0.0625,
    "velocity": 0.2047244094488189,
    "time": 23.258312225341797,
    "color": "yellow"
  },
  {
    "pitch": 36,
    "duration": 0.0625,
    "velocity": 0.31496062992125984,
    "time": 23.4611873626709,
    "color": "yellow"
  },
  {
    "pitch": 36,
    "duration": 0.0625,
    "velocity": 0.1732283464566929,
    "time": 23.712175369262695,
    "color": "yellow"
  },
  {
    "pitch": 36,
    "duration": 0.0625,
    "velocity": 0.3543307086614173,
    "time": 23.996950149536133,
    "color": "yellow"
  },
  {
    "pitch": 36,
    "duration": 0.0625,
    "velocity": 0.2283464566929134,
    "time": 24.269649505615234,
    "color": "yellow"
  },
  {
    "pitch": 36,
    "duration": 0.0625,
    "velocity": 0.047244094488188976,
    "time": 24.456586837768555,
    "color": "yellow"
  },
  {
    "pitch": 36,
    "duration": 0.0625,
    "velocity": 0.3937007874015748,
    "time": 24.695987701416016,
    "color": "yellow"
  },
  {
    "pitch": 36,
    "duration": 0.0625,
    "velocity": 0.2283464566929134,
    "time": 24.98740005493164,
    "color": "yellow"
  },
  {
    "pitch": 36,
    "duration": 0.0625,
    "velocity": 0.25196850393700787,
    "time": 25.26546287536621,
    "color": "yellow"
  },
  {
    "pitch": 36,
    "duration": 0.0625,
    "velocity": 0.33070866141732286,
    "time": 25.45558738708496,
    "color": "yellow"
  },
  {
    "pitch": 36,
    "duration": 0.0625,
    "velocity": 0.13385826771653545,
    "time": 25.69022560119629,
    "color": "yellow"
  },
  {
    "pitch": 36,
    "duration": 0.0625,
    "velocity": 0.33858267716535434,
    "time": 25.9882755279541,
    "color": "yellow"
  },
  {
    "pitch": 36,
    "duration": 0.0625,
    "velocity": 0.23622047244094488,
    "time": 26.253137588500977,
    "color": "yellow"
  },
  {
    "pitch": 36,
    "duration": 0.0625,
    "velocity": 0.047244094488188976,
    "time": 26.452037811279297,
    "color": "yellow"
  },
  {
    "pitch": 36,
    "duration": 0.0625,
    "velocity": 0.3464566929133858,
    "time": 26.6840877532959,
    "color": "yellow"
  },
  {
    "pitch": 36,
    "duration": 0.0625,
    "velocity": 0.18110236220472442,
    "time": 26.98558807373047,
    "color": "yellow"
  },
  {
    "pitch": 36,
    "duration": 0.0625,
    "velocity": 0.23622047244094488,
    "time": 27.2585506439209,
    "color": "yellow"
  },
  {
    "pitch": 36,
    "duration": 0.0625,
    "velocity": 0.2125984251968504,
    "time": 27.45831298828125,
    "color": "yellow"
  },
  {
    "pitch": 36,
    "duration": 0.0625,
    "velocity": 0.25984251968503935,
    "time": 27.71619987487793,
    "color": "yellow"
  },
  {
    "pitch": 36,
    "duration": 0.0625,
    "velocity": 0.4881889763779528,
    "time": 28.00367546081543,
    "color": "yellow"
  },
  {
    "pitch": 36,
    "duration": 0.0625,
    "velocity": 0.23622047244094488,
    "time": 28.26163673400879,
    "color": "yellow"
  },
  {
    "pitch": 36,
    "duration": 0.0625,
    "velocity": 0.2204724409448819,
    "time": 28.491662979125977,
    "color": "yellow"
  },
  {
    "pitch": 36,
    "duration": 0.0625,
    "velocity": 0.48031496062992124,
    "time": 28.727087020874023,
    "color": "yellow"
  },
  {
    "pitch": 36,
    "duration": 0.0625,
    "velocity": 0.23622047244094488,
    "time": 29.01325035095215,
    "color": "yellow"
  },
  {
    "pitch": 36,
    "duration": 0.0625,
    "velocity": 0.29133858267716534,
    "time": 29.250288009643555,
    "color": "yellow"
  },
  {
    "pitch": 36,
    "duration": 0.0625,
    "velocity": 0.1889763779527559,
    "time": 29.465200424194336,
    "color": "yellow"
  },
  {
    "pitch": 36,
    "duration": 0.0625,
    "velocity": 0.11811023622047244,
    "time": 29.736774444580078,
    "color": "yellow"
  },
  {
    "pitch": 36,
    "duration": 0.0625,
    "velocity": 0.8582677165354331,
    "time": 29.995975494384766,
    "color": "yellow"
  },
  {
    "pitch": 36,
    "duration": 0.0625,
    "velocity": 0.1732283464566929,
    "time": 30.266687393188477,
    "color": "yellow"
  },
  {
    "pitch": 36,
    "duration": 0.0625,
    "velocity": 0.2677165354330709,
    "time": 30.71818733215332,
    "color": "yellow"
  },
  {
    "pitch": 36,
    "duration": 0.0625,
    "velocity": 0.31496062992125984,
    "time": 31.005399703979492,
    "color": "yellow"
  },
  {
    "pitch": 36,
    "duration": 0.0625,
    "velocity": 0.2440944881889764,
    "time": 31.29448699951172,
    "color": "yellow"
  },
  {
    "pitch": 36,
    "duration": 0.0625,
    "velocity": 0.14173228346456693,
    "time": 31.4653377532959,
    "color": "yellow"
  },
  {
    "pitch": 36,
    "duration": 0.0625,
    "velocity": 0.14173228346456693,
    "time": 31.75566291809082,
    "color": "yellow"
  }
]).loopLength(32).pitch(60);