export var MisturaBreakGroove = m().data([
  {
    "pitch": 36,
    "duration": 0.0525,
    "velocity": 0.6062992125984252,
    "time": 265.9999694824219,
    "color": "yellow"
  },
  {
    "pitch": 36,
    "duration": 0.0525,
    "velocity": 1,
    "time": 266.4768981933594,
    "color": "yellow"
  },
  {
    "pitch": 36,
    "duration": 0.0525,
    "velocity": 0.2283464566929134,
    "time": 266.9914245605469,
    "color": "yellow"
  },
  {
    "pitch": 36,
    "duration": 0.0525,
    "velocity": 0.7480314960629921,
    "time": 267.29827880859375,
    "color": "yellow"
  },
  {
    "pitch": 36,
    "duration": 0.0525,
    "velocity": 0.905511811023622,
    "time": 267.72808837890625,
    "color": "yellow"
  },
  {
    "pitch": 36,
    "duration": 0.0525,
    "velocity": 0.6220472440944882,
    "time": 267.9905700683594,
    "color": "yellow"
  },
  {
    "pitch": 36,
    "duration": 0.0525,
    "velocity": 0.9291338582677166,
    "time": 268.2496337890625,
    "color": "yellow"
  },
  {
    "pitch": 36,
    "duration": 0.0525,
    "velocity": 0.7637795275590551,
    "time": 268.6917724609375,
    "color": "yellow"
  },
  {
    "pitch": 36,
    "duration": 0.0525,
    "velocity": 0.4881889763779528,
    "time": 268.968505859375,
    "color": "yellow"
  },
  {
    "pitch": 36,
    "duration": 0.0525,
    "velocity": 0.5669291338582677,
    "time": 269.21685791015625,
    "color": "yellow"
  },
  {
    "pitch": 36,
    "duration": 0.0525,
    "velocity": 0.05511811023622047,
    "time": 269.446533203125,
    "color": "yellow"
  },
  {
    "pitch": 36,
    "duration": 0.0525,
    "velocity": 0.6456692913385826,
    "time": 269.6744689941406,
    "color": "yellow"
  },
  {
    "pitch": 36,
    "duration": 0.0525,
    "velocity": 0.7401574803149606,
    "time": 269.9649963378906,
    "color": "yellow"
  },
  {
    "pitch": 36,
    "duration": 0.0525,
    "velocity": 0.7874015748031497,
    "time": 270.43707275390625,
    "color": "yellow"
  },
  {
    "pitch": 36,
    "duration": 0.0525,
    "velocity": 0.13385826771653545,
    "time": 270.9583435058594,
    "color": "yellow"
  },
  {
    "pitch": 36,
    "duration": 0.0525,
    "velocity": 0.7401574803149606,
    "time": 272,
    "color": "yellow"
  },
  {
    "pitch": 36,
    "duration": 0.0525,
    "velocity": 0.3937007874015748,
    "time": 272.2731018066406,
    "color": "yellow"
  },
  {
    "pitch": 36,
    "duration": 0.0525,
    "velocity": 0.48031496062992124,
    "time": 272.7232360839844,
    "color": "yellow"
  },
  {
    "pitch": 36,
    "duration": 0.0525,
    "velocity": 0.8188976377952756,
    "time": 273,
    "color": "yellow"
  },
  {
    "pitch": 36,
    "duration": 0.0525,
    "velocity": 0.7007874015748031,
    "time": 273.2772521972656,
    "color": "yellow"
  },
  {
    "pitch": 36,
    "duration": 0.0525,
    "velocity": 0.5748031496062992,
    "time": 273.6875,
    "color": "yellow"
  }
]).delay(-266).loopLength(8);