export var OndasChords = m().data([
  {
    "pitch": 62,
    "duration": 3.99,
    "velocity": 0.6614173228346457,
    "time": 0,
    "color": "yellow"
  },
  {
    "pitch": 66,
    "duration": 3.99,
    "velocity": 0.5748031496062992,
    "time": 0,
    "color": "yellow"
  },
  {
    "pitch": 69,
    "duration": 3.99,
    "velocity": 0.31496062992125984,
    "time": 0,
    "color": "yellow"
  },
  {
    "pitch": 62,
    "duration": 3.99,
    "velocity": 0.4330708661417323,
    "time": 4,
    "color": "yellow"
  },
  {
    "pitch": 66,
    "duration": 3.99,
    "velocity": 0.4409448818897638,
    "time": 4,
    "color": "yellow"
  },
  {
    "pitch": 69,
    "duration": 3.99,
    "velocity": 0.6062992125984252,
    "time": 4,
    "color": "yellow"
  },
  {
    "pitch": 73,
    "duration": 3.99,
    "velocity": 0.6299212598425197,
    "time": 4,
    "color": "yellow"
  },
  {
    "pitch": 62,
    "duration": 7.99,
    "velocity": 0.5039370078740157,
    "time": 8,
    "color": "yellow"
  },
  {
    "pitch": 65,
    "duration": 7.99,
    "velocity": 0.6220472440944882,
    "time": 8,
    "color": "yellow"
  },
  {
    "pitch": 70,
    "duration": 7.99,
    "velocity": 0.6062992125984252,
    "time": 8,
    "color": "yellow"
  }
]).loopLength(16);

export var OndasChordsShorter = m().data([
  {
    "pitch": 62,
    "duration": 3.99,
    "velocity": 0.6614173228346457,
    "time": 0,
    "color": "yellow"
  },
  {
    "pitch": 66,
    "duration": 3.99,
    "velocity": 0.5748031496062992,
    "time": 0,
    "color": "yellow"
  },
  {
    "pitch": 69,
    "duration": 3.99,
    "velocity": 0.31496062992125984,
    "time": 0,
    "color": "yellow"
  },
  {
    "pitch": 62,
    "duration": 3.99,
    "velocity": 0.4330708661417323,
    "time": 4,
    "color": "yellow"
  },
  {
    "pitch": 66,
    "duration": 3.99,
    "velocity": 0.4409448818897638,
    "time": 4,
    "color": "yellow"
  },
  {
    "pitch": 69,
    "duration": 3.99,
    "velocity": 0.6062992125984252,
    "time": 4,
    "color": "yellow"
  },
  {
    "pitch": 73,
    "duration": 3.99,
    "velocity": 0.6299212598425197,
    "time": 4,
    "color": "yellow"
  },
  {
    "pitch": 62,
    "duration": 7.99,
    "velocity": 0.5039370078740157,
    "time": 8,
    "color": "yellow"
  },
  {
    "pitch": 65,
    "duration": 7.99,
    "velocity": 0.6220472440944882,
    "time": 8,
    "color": "yellow"
  },
  {
    "pitch": 70,
    "duration": 7.99,
    "velocity": 0.6062992125984252,
    "time": 8,
    "color": "yellow"
  }
]).takeWhile(n => n.time <4).loopLength(4);