export var HummingChordsCorrect = m().data([
  {
    "pitch": 38,
    "duration": 3.99,
    "velocity": 0.7874015748031497,
    "time": 0,
    "color": "yellow"
  },
  {
    "pitch": 53,
    "duration": 3.99,
    "velocity": 0.7874015748031497,
    "time": 0,
    "color": "yellow"
  },
  {
    "pitch": 58,
    "duration": 3.99,
    "velocity": 0.7874015748031497,
    "time": 0,
    "color": "yellow"
  },
  {
    "pitch": 38,
    "duration": 3.99,
    "velocity": 0.7874015748031497,
    "time": 4,
    "color": "yellow"
  },
  {
    "pitch": 53,
    "duration": 3.99,
    "velocity": 0.7874015748031497,
    "time": 4,
    "color": "yellow"
  },
  {
    "pitch": 58,
    "duration": 3.99,
    "velocity": 0.7874015748031497,
    "time": 4,
    "color": "yellow"
  },
  {
    "pitch": 38,
    "duration": 3.99,
    "velocity": 0.7874015748031497,
    "time": 8,
    "color": "yellow"
  },
  {
    "pitch": 54,
    "duration": 3.99,
    "velocity": 0.7874015748031497,
    "time": 8,
    "color": "yellow"
  },
  {
    "pitch": 57,
    "duration": 3.99,
    "velocity": 0.7874015748031497,
    "time": 8,
    "color": "yellow"
  },
  {
    "pitch": 38,
    "duration": 3.99,
    "velocity": 0.7874015748031497,
    "time": 12,
    "color": "yellow"
  },
  {
    "pitch": 54,
    "duration": 3.99,
    "velocity": 0.7874015748031497,
    "time": 12,
    "color": "yellow"
  },
  {
    "pitch": 57,
    "duration": 3.99,
    "velocity": 0.7874015748031497,
    "time": 12,
    "color": "yellow"
  },
  {
    "pitch": 38,
    "duration": 3.99,
    "velocity": 0.7874015748031497,
    "time": 16,
    "color": "yellow"
  },
  {
    "pitch": 53,
    "duration": 3.99,
    "velocity": 0.7874015748031497,
    "time": 16,
    "color": "yellow"
  },
  {
    "pitch": 56,
    "duration": 3.99,
    "velocity": 0.7874015748031497,
    "time": 16,
    "color": "yellow"
  },
  {
    "pitch": 38,
    "duration": 3.99,
    "velocity": 0.7874015748031497,
    "time": 20,
    "color": "yellow"
  },
  {
    "pitch": 50,
    "duration": 3.99,
    "velocity": 0.7874015748031497,
    "time": 20,
    "color": "yellow"
  },
  {
    "pitch": 55,
    "duration": 3.99,
    "velocity": 0.7874015748031497,
    "time": 20,
    "color": "yellow"
  },
  {
    "pitch": 38,
    "duration": 3.99,
    "velocity": 0.7874015748031497,
    "time": 24,
    "color": "yellow"
  },
  {
    "pitch": 49,
    "duration": 3.99,
    "velocity": 0.7874015748031497,
    "time": 24,
    "color": "yellow"
  },
  {
    "pitch": 55,
    "duration": 3.99,
    "velocity": 0.7874015748031497,
    "time": 24,
    "color": "yellow"
  },
  {
    "pitch": 38,
    "duration": 3.99,
    "velocity": 0.7874015748031497,
    "time": 28,
    "color": "yellow"
  },
  {
    "pitch": 49,
    "duration": 3.99,
    "velocity": 0.7874015748031497,
    "time": 28,
    "color": "yellow"
  },
  {
    "pitch": 55,
    "duration": 3.99,
    "velocity": 0.7874015748031497,
    "time": 28,
    "color": "yellow"
  },
  {
    "pitch": 38,
    "duration": 3.99,
    "velocity": 0.7874015748031497,
    "time": 32,
    "color": "yellow"
  },
  {
    "pitch": 45,
    "duration": 3.99,
    "velocity": 0.7874015748031497,
    "time": 32,
    "color": "yellow"
  },
  {
    "pitch": 54,
    "duration": 3.99,
    "velocity": 0.7874015748031497,
    "time": 32,
    "color": "yellow"
  },
  {
    "pitch": 38,
    "duration": 3.99,
    "velocity": 0.7874015748031497,
    "time": 36,
    "color": "yellow"
  },
  {
    "pitch": 46,
    "duration": 3.99,
    "velocity": 0.7874015748031497,
    "time": 36,
    "color": "yellow"
  },
  {
    "pitch": 53,
    "duration": 3.99,
    "velocity": 0.7874015748031497,
    "time": 36,
    "color": "yellow"
  },
  {
    "pitch": 38,
    "duration": 3.99,
    "velocity": 0.7874015748031497,
    "time": 40,
    "color": "yellow"
  },
  {
    "pitch": 46,
    "duration": 3.99,
    "velocity": 0.7874015748031497,
    "time": 40,
    "color": "yellow"
  },
  {
    "pitch": 53,
    "duration": 3.99,
    "velocity": 0.7874015748031497,
    "time": 40,
    "color": "yellow"
  },
  {
    "pitch": 40,
    "duration": 3.99,
    "velocity": 0.7874015748031497,
    "time": 44,
    "color": "yellow"
  },
  {
    "pitch": 46,
    "duration": 3.99,
    "velocity": 0.7874015748031497,
    "time": 44,
    "color": "yellow"
  },
  {
    "pitch": 52,
    "duration": 3.99,
    "velocity": 0.7874015748031497,
    "time": 44,
    "color": "yellow"
  },
  {
    "pitch": 36,
    "duration": 3.99,
    "velocity": 0.7874015748031497,
    "time": 48,
    "color": "yellow"
  },
  {
    "pitch": 48,
    "duration": 3.99,
    "velocity": 0.7874015748031497,
    "time": 48,
    "color": "yellow"
  },
  {
    "pitch": 53,
    "duration": 3.99,
    "velocity": 0.7874015748031497,
    "time": 48,
    "color": "yellow"
  },
  {
    "pitch": 40,
    "duration": 3.99,
    "velocity": 0.7874015748031497,
    "time": 52,
    "color": "yellow"
  },
  {
    "pitch": 48,
    "duration": 3.99,
    "velocity": 0.7874015748031497,
    "time": 52,
    "color": "yellow"
  },
  {
    "pitch": 52,
    "duration": 3.99,
    "velocity": 0.7874015748031497,
    "time": 52,
    "color": "yellow"
  },
  {
    "pitch": 40,
    "duration": 1.99,
    "velocity": 0.7874015748031497,
    "time": 56,
    "color": "yellow"
  },
  {
    "pitch": 48,
    "duration": 1.99,
    "velocity": 0.7874015748031497,
    "time": 56,
    "color": "yellow"
  },
  {
    "pitch": 52,
    "duration": 1.99,
    "velocity": 0.7874015748031497,
    "time": 56,
    "color": "yellow"
  },
  {
    "pitch": 39,
    "duration": 3.99,
    "velocity": 0.7874015748031497,
    "time": 58,
    "color": "yellow"
  },
  {
    "pitch": 46,
    "duration": 3.99,
    "velocity": 0.7874015748031497,
    "time": 58,
    "color": "yellow"
  },
  {
    "pitch": 51,
    "duration": 3.99,
    "velocity": 0.7874015748031497,
    "time": 58,
    "color": "yellow"
  },
  {
    "pitch": 38,
    "duration": 1.99,
    "velocity": 0.7874015748031497,
    "time": 62,
    "color": "yellow"
  },
  {
    "pitch": 46,
    "duration": 1.99,
    "velocity": 0.6614173228346457,
    "time": 62,
    "color": "yellow"
  },
  {
    "pitch": 54,
    "duration": 1.99,
    "velocity": 0.7874015748031497,
    "time": 62,
    "color": "yellow"
  }
]).loopLength(64);