export var OndasGroove = m().data([
  {
    "pitch": 60,
    "duration": 0.0525,
    "velocity": 0.5196850393700787,
    "time": 0,
    "color": "yellow"
  },
  {
    "pitch": 60,
    "duration": 0.0525,
    "velocity": 0.28346456692913385,
    "time": 0.4754682779312134,
    "color": "yellow"
  },
  {
    "pitch": 60,
    "duration": 0.0525,
    "velocity": 0.4015748031496063,
    "time": 0.9897641539573669,
    "color": "yellow"
  },
  {
    "pitch": 60,
    "duration": 0.0525,
    "velocity": 0.23622047244094488,
    "time": 1.5164861679077148,
    "color": "yellow"
  },
  {
    "pitch": 60,
    "duration": 0.0525,
    "velocity": 0.6299212598425197,
    "time": 2,
    "color": "yellow"
  },
  {
    "pitch": 60,
    "duration": 0.0525,
    "velocity": 0.6771653543307087,
    "time": 2.2463533878326416,
    "color": "yellow"
  },
  {
    "pitch": 60,
    "duration": 0.0525,
    "velocity": 1,
    "time": 2.7344627380371094,
    "color": "yellow"
  },
  {
    "pitch": 60,
    "duration": 0.0525,
    "velocity": 0.5590551181102362,
    "time": 3.0042495727539062,
    "color": "yellow"
  },
  {
    "pitch": 60,
    "duration": 0.0525,
    "velocity": 0.15748031496062992,
    "time": 3.481731653213501,
    "color": "yellow"
  },
  {
    "pitch": 60,
    "duration": 0.0525,
    "velocity": 0.5511811023622047,
    "time": 4,
    "color": "yellow"
  },
  {
    "pitch": 60,
    "duration": 0.0525,
    "velocity": 0.41732283464566927,
    "time": 4.492384433746338,
    "color": "yellow"
  },
  {
    "pitch": 60,
    "duration": 0.0525,
    "velocity": 0.2992125984251969,
    "time": 4.787187576293945,
    "color": "yellow"
  },
  {
    "pitch": 60,
    "duration": 0.0525,
    "velocity": 0.49606299212598426,
    "time": 5.0275702476501465,
    "color": "yellow"
  },
  {
    "pitch": 60,
    "duration": 0.0525,
    "velocity": 0.44881889763779526,
    "time": 5.454975605010986,
    "color": "yellow"
  },
  {
    "pitch": 60,
    "duration": 0.0525,
    "velocity": 0.49606299212598426,
    "time": 6,
    "color": "yellow"
  },
  {
    "pitch": 60,
    "duration": 0.0525,
    "velocity": 0.9212598425196851,
    "time": 6.5,
    "color": "yellow"
  },
  {
    "pitch": 60,
    "duration": 0.0525,
    "velocity": 0.4645669291338583,
    "time": 7.00927734375,
    "color": "yellow"
  },
  {
    "pitch": 60,
    "duration": 0.0525,
    "velocity": 0.48031496062992124,
    "time": 7.429234981536865,
    "color": "yellow"
  },
  {
    "pitch": 60,
    "duration": 0.0525,
    "velocity": 0.4645669291338583,
    "time": 8,
    "color": "yellow"
  },
  {
    "pitch": 60,
    "duration": 0.0525,
    "velocity": 0.4881889763779528,
    "time": 8.447126388549805,
    "color": "yellow"
  },
  {
    "pitch": 60,
    "duration": 0.0525,
    "velocity": 0.23622047244094488,
    "time": 8.696270942687988,
    "color": "yellow"
  },
  {
    "pitch": 60,
    "duration": 0.0525,
    "velocity": 0.4015748031496063,
    "time": 8.974640846252441,
    "color": "yellow"
  },
  {
    "pitch": 60,
    "duration": 0.0525,
    "velocity": 0.3543307086614173,
    "time": 9.471063613891602,
    "color": "yellow"
  },
  {
    "pitch": 60,
    "duration": 0.0525,
    "velocity": 0.4330708661417323,
    "time": 10,
    "color": "yellow"
  },
  {
    "pitch": 60,
    "duration": 0.0525,
    "velocity": 0.44881889763779526,
    "time": 10.23709487915039,
    "color": "yellow"
  },
  {
    "pitch": 60,
    "duration": 0.0525,
    "velocity": 0.7165354330708661,
    "time": 10.72500991821289,
    "color": "yellow"
  },
  {
    "pitch": 60,
    "duration": 0.0525,
    "velocity": 0.29133858267716534,
    "time": 10.992319107055664,
    "color": "yellow"
  },
  {
    "pitch": 60,
    "duration": 0.0525,
    "velocity": 0.2125984251968504,
    "time": 11.472204208374023,
    "color": "yellow"
  },
  {
    "pitch": 60,
    "duration": 0.0525,
    "velocity": 0.5354330708661418,
    "time": 12,
    "color": "yellow"
  },
  {
    "pitch": 60,
    "duration": 0.0525,
    "velocity": 0.2125984251968504,
    "time": 12.250414848327637,
    "color": "yellow"
  },
  {
    "pitch": 60,
    "duration": 0.0525,
    "velocity": 0.3779527559055118,
    "time": 12.453228950500488,
    "color": "yellow"
  },
  {
    "pitch": 60,
    "duration": 0.0525,
    "velocity": 0.2125984251968504,
    "time": 12.732837677001953,
    "color": "yellow"
  },
  {
    "pitch": 60,
    "duration": 0.0525,
    "velocity": 0.4566929133858268,
    "time": 13.00489330291748,
    "color": "yellow"
  },
  {
    "pitch": 60,
    "duration": 0.0525,
    "velocity": 0.14173228346456693,
    "time": 13.156228065490723,
    "color": "yellow"
  },
  {
    "pitch": 60,
    "duration": 0.0525,
    "velocity": 0.2047244094488189,
    "time": 13.465509414672852,
    "color": "yellow"
  },
  {
    "pitch": 60,
    "duration": 0.0525,
    "velocity": 0.49606299212598426,
    "time": 14,
    "color": "yellow"
  },
  {
    "pitch": 60,
    "duration": 0.0525,
    "velocity": 0.44881889763779526,
    "time": 14.201942443847656,
    "color": "yellow"
  },
  {
    "pitch": 60,
    "duration": 0.0525,
    "velocity": 0.6141732283464567,
    "time": 14.5,
    "color": "yellow"
  },
  {
    "pitch": 60,
    "duration": 0.0525,
    "velocity": 0.6141732283464567,
    "time": 14.683051109313965,
    "color": "yellow"
  },
  {
    "pitch": 60,
    "duration": 0.0525,
    "velocity": 0.4645669291338583,
    "time": 14.971540451049805,
    "color": "yellow"
  },
  {
    "pitch": 60,
    "duration": 0.0525,
    "velocity": 0.11811023622047244,
    "time": 15.147428512573242,
    "color": "yellow"
  },
  {
    "pitch": 60,
    "duration": 0.0525,
    "velocity": 0.11023622047244094,
    "time": 15.444917678833008,
    "color": "yellow"
  },
  {
    "pitch": 60,
    "duration": 0.0525,
    "velocity": 0.5275590551181102,
    "time": 16,
    "color": "yellow"
  },
  {
    "pitch": 60,
    "duration": 0.0525,
    "velocity": 0.2440944881889764,
    "time": 16.488140106201172,
    "color": "yellow"
  },
  {
    "pitch": 60,
    "duration": 0.0525,
    "velocity": 0.1968503937007874,
    "time": 16.72562599182129,
    "color": "yellow"
  },
  {
    "pitch": 60,
    "duration": 0.0525,
    "velocity": 0.44881889763779526,
    "time": 17.000890731811523,
    "color": "yellow"
  },
  {
    "pitch": 60,
    "duration": 0.0525,
    "velocity": 0.2677165354330709,
    "time": 17.494970321655273,
    "color": "yellow"
  },
  {
    "pitch": 60,
    "duration": 0.0525,
    "velocity": 0.4409448818897638,
    "time": 18,
    "color": "yellow"
  },
  {
    "pitch": 60,
    "duration": 0.0525,
    "velocity": 0.4015748031496063,
    "time": 18.5,
    "color": "yellow"
  },
  {
    "pitch": 60,
    "duration": 0.0525,
    "velocity": 0.6141732283464567,
    "time": 18.714706420898438,
    "color": "yellow"
  },
  {
    "pitch": 60,
    "duration": 0.0525,
    "velocity": 0.44881889763779526,
    "time": 18.997121810913086,
    "color": "yellow"
  },
  {
    "pitch": 60,
    "duration": 0.0525,
    "velocity": 0.11811023622047244,
    "time": 19.48663330078125,
    "color": "yellow"
  },
  {
    "pitch": 60,
    "duration": 0.0525,
    "velocity": 0.4645669291338583,
    "time": 20,
    "color": "yellow"
  },
  {
    "pitch": 60,
    "duration": 0.0525,
    "velocity": 0.2047244094488189,
    "time": 20.506704330444336,
    "color": "yellow"
  },
  {
    "pitch": 60,
    "duration": 0.0525,
    "velocity": 0.5354330708661418,
    "time": 21.003007888793945,
    "color": "yellow"
  },
  {
    "pitch": 60,
    "duration": 0.0525,
    "velocity": 0.14960629921259844,
    "time": 21.477087020874023,
    "color": "yellow"
  },
  {
    "pitch": 60,
    "duration": 0.0525,
    "velocity": 0.5748031496062992,
    "time": 22,
    "color": "yellow"
  },
  {
    "pitch": 60,
    "duration": 0.0525,
    "velocity": 0.3543307086614173,
    "time": 22.264148712158203,
    "color": "yellow"
  },
  {
    "pitch": 60,
    "duration": 0.0525,
    "velocity": 0.3543307086614173,
    "time": 22.5,
    "color": "yellow"
  },
  {
    "pitch": 60,
    "duration": 0.0525,
    "velocity": 0.6377952755905512,
    "time": 22.75870704650879,
    "color": "yellow"
  },
  {
    "pitch": 60,
    "duration": 0.0525,
    "velocity": 0.41732283464566927,
    "time": 23,
    "color": "yellow"
  },
  {
    "pitch": 60,
    "duration": 0.0525,
    "velocity": 0.14173228346456693,
    "time": 23.503385543823242,
    "color": "yellow"
  },
  {
    "pitch": 60,
    "duration": 0.0525,
    "velocity": 0.5433070866141733,
    "time": 24,
    "color": "yellow"
  },
  {
    "pitch": 60,
    "duration": 0.0525,
    "velocity": 0.31496062992125984,
    "time": 24.483121871948242,
    "color": "yellow"
  },
  {
    "pitch": 60,
    "duration": 0.0525,
    "velocity": 0.5433070866141733,
    "time": 24.993412017822266,
    "color": "yellow"
  },
  {
    "pitch": 60,
    "duration": 0.0525,
    "velocity": 0.25984251968503935,
    "time": 25.499698638916016,
    "color": "yellow"
  },
  {
    "pitch": 60,
    "duration": 0.0525,
    "velocity": 0.44881889763779526,
    "time": 26,
    "color": "yellow"
  },
  {
    "pitch": 60,
    "duration": 0.0525,
    "velocity": 0.5354330708661418,
    "time": 26.249906539916992,
    "color": "yellow"
  },
  {
    "pitch": 60,
    "duration": 0.0525,
    "velocity": 0.7086614173228346,
    "time": 26.5,
    "color": "yellow"
  },
  {
    "pitch": 60,
    "duration": 0.0525,
    "velocity": 0.3700787401574803,
    "time": 26.976945877075195,
    "color": "yellow"
  },
  {
    "pitch": 60,
    "duration": 0.0525,
    "velocity": 0.1732283464566929,
    "time": 27.481304168701172,
    "color": "yellow"
  },
  {
    "pitch": 60,
    "duration": 0.0525,
    "velocity": 0.5748031496062992,
    "time": 28,
    "color": "yellow"
  },
  {
    "pitch": 60,
    "duration": 0.0525,
    "velocity": 0.25984251968503935,
    "time": 28.4742374420166,
    "color": "yellow"
  },
  {
    "pitch": 60,
    "duration": 0.0525,
    "velocity": 0.2440944881889764,
    "time": 28.739978790283203,
    "color": "yellow"
  },
  {
    "pitch": 60,
    "duration": 0.0525,
    "velocity": 0.4251968503937008,
    "time": 28.995288848876953,
    "color": "yellow"
  },
  {
    "pitch": 60,
    "duration": 0.0525,
    "velocity": 0.12598425196850394,
    "time": 29.214609146118164,
    "color": "yellow"
  },
  {
    "pitch": 60,
    "duration": 0.0525,
    "velocity": 0.1968503937007874,
    "time": 29.471263885498047,
    "color": "yellow"
  },
  {
    "pitch": 60,
    "duration": 0.0525,
    "velocity": 0.6771653543307087,
    "time": 30,
    "color": "yellow"
  },
  {
    "pitch": 60,
    "duration": 0.0525,
    "velocity": 0.36220472440944884,
    "time": 30.253829956054688,
    "color": "yellow"
  },
  {
    "pitch": 60,
    "duration": 0.0525,
    "velocity": 0.5354330708661418,
    "time": 30.73331642150879,
    "color": "yellow"
  },
  {
    "pitch": 60,
    "duration": 0.0525,
    "velocity": 0.5118110236220472,
    "time": 31.01654624938965,
    "color": "yellow"
  },
  {
    "pitch": 60,
    "duration": 0.0525,
    "velocity": 0.11811023622047244,
    "time": 31.533071517944336,
    "color": "yellow"
  },
  {
    "pitch": 60,
    "duration": 0.0525,
    "velocity": 0.47244094488188976,
    "time": 32,
    "color": "yellow"
  },
  {
    "pitch": 60,
    "duration": 0.0525,
    "velocity": 0.36220472440944884,
    "time": 32.48945999145508,
    "color": "yellow"
  },
  {
    "pitch": 60,
    "duration": 0.0525,
    "velocity": 0.4566929133858268,
    "time": 32.9898567199707,
    "color": "yellow"
  },
  {
    "pitch": 60,
    "duration": 0.0525,
    "velocity": 0.2125984251968504,
    "time": 33.52382278442383,
    "color": "yellow"
  },
  {
    "pitch": 60,
    "duration": 0.0525,
    "velocity": 0.48031496062992124,
    "time": 34,
    "color": "yellow"
  },
  {
    "pitch": 60,
    "duration": 0.0525,
    "velocity": 0.30708661417322836,
    "time": 34.258949279785156,
    "color": "yellow"
  },
  {
    "pitch": 60,
    "duration": 0.0525,
    "velocity": 0.7007874015748031,
    "time": 34.752113342285156,
    "color": "yellow"
  },
  {
    "pitch": 60,
    "duration": 0.0525,
    "velocity": 0.47244094488188976,
    "time": 35.00068283081055,
    "color": "yellow"
  },
  {
    "pitch": 60,
    "duration": 0.0525,
    "velocity": 0.11811023622047244,
    "time": 35.526309967041016,
    "color": "yellow"
  },
  {
    "pitch": 60,
    "duration": 0.0525,
    "velocity": 0.4409448818897638,
    "time": 36,
    "color": "yellow"
  },
  {
    "pitch": 60,
    "duration": 0.0525,
    "velocity": 0.3464566929133858,
    "time": 36.47604751586914,
    "color": "yellow"
  },
  {
    "pitch": 60,
    "duration": 0.0525,
    "velocity": 0.25984251968503935,
    "time": 36.727108001708984,
    "color": "yellow"
  },
  {
    "pitch": 60,
    "duration": 0.0525,
    "velocity": 0.49606299212598426,
    "time": 37.00271987915039,
    "color": "yellow"
  },
  {
    "pitch": 60,
    "duration": 0.0525,
    "velocity": 0.2992125984251969,
    "time": 37.47480010986328,
    "color": "yellow"
  },
  {
    "pitch": 60,
    "duration": 0.0525,
    "velocity": 0.4881889763779528,
    "time": 38.0004997253418,
    "color": "yellow"
  },
  {
    "pitch": 60,
    "duration": 0.0525,
    "velocity": 0.3228346456692913,
    "time": 38.22511672973633,
    "color": "yellow"
  },
  {
    "pitch": 60,
    "duration": 0.0525,
    "velocity": 0.5590551181102362,
    "time": 38.7059326171875,
    "color": "yellow"
  },
  {
    "pitch": 60,
    "duration": 0.0525,
    "velocity": 0.3779527559055118,
    "time": 38.98914337158203,
    "color": "yellow"
  },
  {
    "pitch": 60,
    "duration": 0.0525,
    "velocity": 0.10236220472440945,
    "time": 39.475677490234375,
    "color": "yellow"
  },
  {
    "pitch": 60,
    "duration": 0.0525,
    "velocity": 0.5984251968503937,
    "time": 40,
    "color": "yellow"
  },
  {
    "pitch": 60,
    "duration": 0.0525,
    "velocity": 0.28346456692913385,
    "time": 40.45497131347656,
    "color": "yellow"
  },
  {
    "pitch": 60,
    "duration": 0.0525,
    "velocity": 0.2283464566929134,
    "time": 40.74039077758789,
    "color": "yellow"
  },
  {
    "pitch": 60,
    "duration": 0.0525,
    "velocity": 0.4881889763779528,
    "time": 41.00654983520508,
    "color": "yellow"
  },
  {
    "pitch": 60,
    "duration": 0.0525,
    "velocity": 0.2125984251968504,
    "time": 41.48869323730469,
    "color": "yellow"
  },
  {
    "pitch": 60,
    "duration": 0.0525,
    "velocity": 0.5905511811023622,
    "time": 42,
    "color": "yellow"
  },
  {
    "pitch": 60,
    "duration": 0.0525,
    "velocity": 0.41732283464566927,
    "time": 42.26555633544922,
    "color": "yellow"
  },
  {
    "pitch": 60,
    "duration": 0.0525,
    "velocity": 0.6614173228346457,
    "time": 42.5,
    "color": "yellow"
  },
  {
    "pitch": 60,
    "duration": 0.0525,
    "velocity": 0.6614173228346457,
    "time": 42.7472038269043,
    "color": "yellow"
  },
  {
    "pitch": 60,
    "duration": 0.0525,
    "velocity": 0.3228346456692913,
    "time": 43.0101318359375,
    "color": "yellow"
  },
  {
    "pitch": 60,
    "duration": 0.0525,
    "velocity": 0.16535433070866143,
    "time": 43.49053192138672,
    "color": "yellow"
  },
  {
    "pitch": 60,
    "duration": 0.0525,
    "velocity": 0.8031496062992126,
    "time": 44,
    "color": "yellow"
  },
  {
    "pitch": 60,
    "duration": 0.0525,
    "velocity": 0.2755905511811024,
    "time": 44.46925354003906,
    "color": "yellow"
  },
  {
    "pitch": 60,
    "duration": 0.0525,
    "velocity": 0.23622047244094488,
    "time": 44.763694763183594,
    "color": "yellow"
  },
  {
    "pitch": 60,
    "duration": 0.0525,
    "velocity": 0.4330708661417323,
    "time": 45.01466369628906,
    "color": "yellow"
  },
  {
    "pitch": 60,
    "duration": 0.0525,
    "velocity": 0.2992125984251969,
    "time": 45.49592590332031,
    "color": "yellow"
  },
  {
    "pitch": 60,
    "duration": 0.0525,
    "velocity": 0.4251968503937008,
    "time": 46,
    "color": "yellow"
  },
  {
    "pitch": 60,
    "duration": 0.0525,
    "velocity": 0.3228346456692913,
    "time": 46.2387580871582,
    "color": "yellow"
  },
  {
    "pitch": 60,
    "duration": 0.0525,
    "velocity": 0.5039370078740157,
    "time": 46.70866012573242,
    "color": "yellow"
  },
  {
    "pitch": 60,
    "duration": 0.0525,
    "velocity": 0.3543307086614173,
    "time": 46.9930419921875,
    "color": "yellow"
  },
  {
    "pitch": 60,
    "duration": 0.0525,
    "velocity": 0.25984251968503935,
    "time": 47.47917175292969,
    "color": "yellow"
  },
  {
    "pitch": 60,
    "duration": 0.0525,
    "velocity": 0.5669291338582677,
    "time": 48,
    "color": "yellow"
  },
  {
    "pitch": 60,
    "duration": 0.0525,
    "velocity": 0.2125984251968504,
    "time": 48.44175720214844,
    "color": "yellow"
  },
  {
    "pitch": 60,
    "duration": 0.0525,
    "velocity": 0.28346456692913385,
    "time": 48.730777740478516,
    "color": "yellow"
  },
  {
    "pitch": 60,
    "duration": 0.0525,
    "velocity": 0.4566929133858268,
    "time": 48.9950065612793,
    "color": "yellow"
  },
  {
    "pitch": 60,
    "duration": 0.0525,
    "velocity": 0.2125984251968504,
    "time": 49.46434020996094,
    "color": "yellow"
  },
  {
    "pitch": 60,
    "duration": 0.0525,
    "velocity": 0.5590551181102362,
    "time": 50,
    "color": "yellow"
  },
  {
    "pitch": 60,
    "duration": 0.0525,
    "velocity": 0.36220472440944884,
    "time": 50.24101638793945,
    "color": "yellow"
  },
  {
    "pitch": 60,
    "duration": 0.0525,
    "velocity": 0.6850393700787402,
    "time": 50.72923278808594,
    "color": "yellow"
  },
  {
    "pitch": 60,
    "duration": 0.0525,
    "velocity": 0.33858267716535434,
    "time": 50.98115921020508,
    "color": "yellow"
  },
  {
    "pitch": 60,
    "duration": 0.0525,
    "velocity": 0.5433070866141733,
    "time": 51.4799919128418,
    "color": "yellow"
  },
  {
    "pitch": 60,
    "duration": 0.0525,
    "velocity": 0.5590551181102362,
    "time": 52,
    "color": "yellow"
  },
  {
    "pitch": 60,
    "duration": 0.0525,
    "velocity": 0.2440944881889764,
    "time": 52.264671325683594,
    "color": "yellow"
  },
  {
    "pitch": 60,
    "duration": 0.0525,
    "velocity": 0.49606299212598426,
    "time": 52.45408630371094,
    "color": "yellow"
  },
  {
    "pitch": 60,
    "duration": 0.0525,
    "velocity": 0.30708661417322836,
    "time": 52.73703384399414,
    "color": "yellow"
  },
  {
    "pitch": 60,
    "duration": 0.0525,
    "velocity": 0.4015748031496063,
    "time": 52.99770736694336,
    "color": "yellow"
  },
  {
    "pitch": 60,
    "duration": 0.0525,
    "velocity": 0.25984251968503935,
    "time": 53.49066162109375,
    "color": "yellow"
  },
  {
    "pitch": 60,
    "duration": 0.0525,
    "velocity": 0.4251968503937008,
    "time": 54,
    "color": "yellow"
  },
  {
    "pitch": 60,
    "duration": 0.0525,
    "velocity": 0.36220472440944884,
    "time": 54.2493896484375,
    "color": "yellow"
  },
  {
    "pitch": 60,
    "duration": 0.0525,
    "velocity": 0.5905511811023622,
    "time": 54.70431900024414,
    "color": "yellow"
  },
  {
    "pitch": 60,
    "duration": 0.0525,
    "velocity": 0.4094488188976378,
    "time": 55.02067565917969,
    "color": "yellow"
  },
  {
    "pitch": 60,
    "duration": 0.0525,
    "velocity": 0.07874015748031496,
    "time": 55.49469757080078,
    "color": "yellow"
  },
  {
    "pitch": 60,
    "duration": 0.0525,
    "velocity": 0.07086614173228346,
    "time": 55.77197265625,
    "color": "yellow"
  },
  {
    "pitch": 60,
    "duration": 0.0525,
    "velocity": 0.5826771653543307,
    "time": 56,
    "color": "yellow"
  },
  {
    "pitch": 60,
    "duration": 0.0525,
    "velocity": 0.18110236220472442,
    "time": 56.25868606567383,
    "color": "yellow"
  },
  {
    "pitch": 60,
    "duration": 0.0525,
    "velocity": 0.29133858267716534,
    "time": 56.47197341918945,
    "color": "yellow"
  },
  {
    "pitch": 60,
    "duration": 0.0525,
    "velocity": 0.1732283464566929,
    "time": 56.75,
    "color": "yellow"
  },
  {
    "pitch": 60,
    "duration": 0.0525,
    "velocity": 0.3700787401574803,
    "time": 57.00941467285156,
    "color": "yellow"
  },
  {
    "pitch": 60,
    "duration": 0.0525,
    "velocity": 0.12598425196850394,
    "time": 57.167510986328125,
    "color": "yellow"
  },
  {
    "pitch": 60,
    "duration": 0.0525,
    "velocity": 0.1889763779527559,
    "time": 57.502994537353516,
    "color": "yellow"
  },
  {
    "pitch": 60,
    "duration": 0.0525,
    "velocity": 0.07086614173228346,
    "time": 57.791255950927734,
    "color": "yellow"
  },
  {
    "pitch": 60,
    "duration": 0.0525,
    "velocity": 0.5590551181102362,
    "time": 58,
    "color": "yellow"
  },
  {
    "pitch": 60,
    "duration": 0.0525,
    "velocity": 0.36220472440944884,
    "time": 58.27077102661133,
    "color": "yellow"
  },
  {
    "pitch": 60,
    "duration": 0.0525,
    "velocity": 0.3858267716535433,
    "time": 58.7623176574707,
    "color": "yellow"
  },
  {
    "pitch": 60,
    "duration": 0.0525,
    "velocity": 0.47244094488188976,
    "time": 58.994598388671875,
    "color": "yellow"
  },
  {
    "pitch": 60,
    "duration": 0.0525,
    "velocity": 0.23622047244094488,
    "time": 59.48186111450195,
    "color": "yellow"
  },
  {
    "pitch": 60,
    "duration": 0.0525,
    "velocity": 0.6299212598425197,
    "time": 60,
    "color": "yellow"
  },
  {
    "pitch": 60,
    "duration": 0.0525,
    "velocity": 0.2677165354330709,
    "time": 60.478111267089844,
    "color": "yellow"
  },
  {
    "pitch": 60,
    "duration": 0.0525,
    "velocity": 0.18110236220472442,
    "time": 60.784034729003906,
    "color": "yellow"
  },
  {
    "pitch": 60,
    "duration": 0.0525,
    "velocity": 0.5354330708661418,
    "time": 60.99124526977539,
    "color": "yellow"
  },
  {
    "pitch": 60,
    "duration": 0.0525,
    "velocity": 0.2440944881889764,
    "time": 61.44145584106445,
    "color": "yellow"
  },
  {
    "pitch": 60,
    "duration": 0.0525,
    "velocity": 0.48031496062992124,
    "time": 62,
    "color": "yellow"
  },
  {
    "pitch": 60,
    "duration": 0.0525,
    "velocity": 0.2755905511811024,
    "time": 62.23739242553711,
    "color": "yellow"
  },
  {
    "pitch": 60,
    "duration": 0.0525,
    "velocity": 0.6692913385826772,
    "time": 62.723087310791016,
    "color": "yellow"
  },
  {
    "pitch": 60,
    "duration": 0.0525,
    "velocity": 0.4881889763779528,
    "time": 62.99406051635742,
    "color": "yellow"
  },
  {
    "pitch": 60,
    "duration": 0.0525,
    "velocity": 0.13385826771653545,
    "time": 63.487117767333984,
    "color": "yellow"
  }
]).loopLength(64);