export var FlautaMelody = m().data([
  {
    "pitch": 52,
    "duration": 0.49,
    "velocity": 0.7322834645669292,
    "time": 0,
    "color": "yellow"
  },
  {
    "pitch": 48,
    "duration": 0.49,
    "velocity": 0.6456692913385826,
    "time": 0.5,
    "color": "yellow"
  },
  {
    "pitch": 48,
    "duration": 0.49,
    "velocity": 0.7007874015748031,
    "time": 1,
    "color": "yellow"
  },
  {
    "pitch": 52,
    "duration": 0.49,
    "velocity": 0.7952755905511811,
    "time": 1.5,
    "color": "yellow"
  },
  {
    "pitch": 52,
    "duration": 0.49,
    "velocity": 0.6220472440944882,
    "time": 2,
    "color": "yellow"
  },
  {
    "pitch": 48,
    "duration": 0.49,
    "velocity": 0.6850393700787402,
    "time": 2.5,
    "color": "yellow"
  },
  {
    "pitch": 52,
    "duration": 0.49,
    "velocity": 0.7716535433070866,
    "time": 3,
    "color": "yellow"
  },
  {
    "pitch": 48,
    "duration": 0.49,
    "velocity": 0.6456692913385826,
    "time": 3.5,
    "color": "yellow"
  },
  {
    "pitch": 52,
    "duration": 0.49,
    "velocity": 0.7716535433070866,
    "time": 4,
    "color": "yellow"
  },
  {
    "pitch": 48,
    "duration": 0.49,
    "velocity": 0.6771653543307087,
    "time": 4.5,
    "color": "yellow"
  },
  {
    "pitch": 48,
    "duration": 0.49,
    "velocity": 0.6535433070866141,
    "time": 5,
    "color": "yellow"
  },
  {
    "pitch": 52,
    "duration": 0.49,
    "velocity": 0.6220472440944882,
    "time": 5.5,
    "color": "yellow"
  },
  {
    "pitch": 48,
    "duration": 0.49,
    "velocity": 0.6299212598425197,
    "time": 6,
    "color": "yellow"
  },
  {
    "pitch": 52,
    "duration": 0.49,
    "velocity": 0.7637795275590551,
    "time": 6.5,
    "color": "yellow"
  },
  {
    "pitch": 48,
    "duration": 0.49,
    "velocity": 0.6850393700787402,
    "time": 7,
    "color": "yellow"
  },
  {
    "pitch": 52,
    "duration": 0.49,
    "velocity": 0.7637795275590551,
    "time": 7.5,
    "color": "yellow"
  },
  {
    "pitch": 53,
    "duration": 0.49,
    "velocity": 0.7637795275590551,
    "time": 8,
    "color": "yellow"
  },
  {
    "pitch": 50,
    "duration": 0.49,
    "velocity": 0.6535433070866141,
    "time": 8.5,
    "color": "yellow"
  },
  {
    "pitch": 53,
    "duration": 0.49,
    "velocity": 0.6220472440944882,
    "time": 9,
    "color": "yellow"
  },
  {
    "pitch": 50,
    "duration": 0.49,
    "velocity": 0.6771653543307087,
    "time": 9.5,
    "color": "yellow"
  },
  {
    "pitch": 53,
    "duration": 0.49,
    "velocity": 0.6220472440944882,
    "time": 10,
    "color": "yellow"
  },
  {
    "pitch": 50,
    "duration": 0.49,
    "velocity": 0.7086614173228346,
    "time": 10.5,
    "color": "yellow"
  },
  {
    "pitch": 50,
    "duration": 0.49,
    "velocity": 0.6220472440944882,
    "time": 11,
    "color": "yellow"
  },
  {
    "pitch": 53,
    "duration": 0.49,
    "velocity": 0.6456692913385826,
    "time": 11.5,
    "color": "yellow"
  },
  {
    "pitch": 53,
    "duration": 0.49,
    "velocity": 0.6456692913385826,
    "time": 12,
    "color": "yellow"
  },
  {
    "pitch": 47,
    "duration": 0.49,
    "velocity": 0.6535433070866141,
    "time": 12.5,
    "color": "yellow"
  },
  {
    "pitch": 52,
    "duration": 0.49,
    "velocity": 0.7637795275590551,
    "time": 13,
    "color": "yellow"
  },
  {
    "pitch": 47,
    "duration": 0.49,
    "velocity": 0.6141732283464567,
    "time": 13.5,
    "color": "yellow"
  },
  {
    "pitch": 50,
    "duration": 0.49,
    "velocity": 0.6850393700787402,
    "time": 14,
    "color": "yellow"
  },
  {
    "pitch": 47,
    "duration": 0.49,
    "velocity": 0.6535433070866141,
    "time": 14.5,
    "color": "yellow"
  },
  {
    "pitch": 52,
    "duration": 0.49,
    "velocity": 0.7637795275590551,
    "time": 15,
    "color": "yellow"
  },
  {
    "pitch": 50,
    "duration": 0.49,
    "velocity": 0.7007874015748031,
    "time": 15.5,
    "color": "yellow"
  }
]).loopLength(16);