export var NiceHummingChords = m().data([
  {
    "pitch": 50,
    "duration": 7.99,
    "velocity": 0.7874015748031497,
    "time": 0,
    "color": "yellow"
  },
  {
    "pitch": 53,
    "duration": 7.99,
    "velocity": 0.7874015748031497,
    "time": 0,
    "color": "yellow"
  },
  {
    "pitch": 58,
    "duration": 7.99,
    "velocity": 0.7874015748031497,
    "time": 0,
    "color": "yellow"
  },
  {
    "pitch": 50,
    "duration": 5.99,
    "velocity": 0.7874015748031497,
    "time": 8,
    "color": "yellow"
  },
  {
    "pitch": 54,
    "duration": 5.99,
    "velocity": 0.7874015748031497,
    "time": 8,
    "color": "yellow"
  },
  {
    "pitch": 57,
    "duration": 5.99,
    "velocity": 0.7874015748031497,
    "time": 8,
    "color": "yellow"
  },
  {
    "pitch": 50,
    "duration": 1.99,
    "velocity": 0.7874015748031497,
    "time": 14,
    "color": "yellow"
  },
  {
    "pitch": 53,
    "duration": 1.99,
    "velocity": 0.7874015748031497,
    "time": 14,
    "color": "yellow"
  },
  {
    "pitch": 57,
    "duration": 1.99,
    "velocity": 0.7874015748031497,
    "time": 14,
    "color": "yellow"
  },
  {
    "pitch": 50,
    "duration": 3.99,
    "velocity": 0.7874015748031497,
    "time": 16,
    "color": "yellow"
  },
  {
    "pitch": 53,
    "duration": 3.99,
    "velocity": 0.7874015748031497,
    "time": 16,
    "color": "yellow"
  },
  {
    "pitch": 58,
    "duration": 3.99,
    "velocity": 0.7874015748031497,
    "time": 16,
    "color": "yellow"
  },
  {
    "pitch": 50,
    "duration": 3.99,
    "velocity": 0.7874015748031497,
    "time": 20,
    "color": "yellow"
  },
  {
    "pitch": 55,
    "duration": 3.99,
    "velocity": 0.7874015748031497,
    "time": 20,
    "color": "yellow"
  },
  {
    "pitch": 50,
    "duration": 1.99,
    "velocity": 0.7874015748031497,
    "time": 24,
    "color": "yellow"
  },
  {
    "pitch": 53,
    "duration": 1.99,
    "velocity": 0.7874015748031497,
    "time": 24,
    "color": "yellow"
  },
  {
    "pitch": 58,
    "duration": 1.99,
    "velocity": 0.7874015748031497,
    "time": 24,
    "color": "yellow"
  },
  {
    "pitch": 50,
    "duration": 1.99,
    "velocity": 0.7874015748031497,
    "time": 26,
    "color": "yellow"
  },
  {
    "pitch": 52,
    "duration": 1.99,
    "velocity": 0.7874015748031497,
    "time": 26,
    "color": "yellow"
  },
  {
    "pitch": 58,
    "duration": 1.99,
    "velocity": 0.7874015748031497,
    "time": 26,
    "color": "yellow"
  },
  {
    "pitch": 50,
    "duration": 3.99,
    "velocity": 0.7874015748031497,
    "time": 28,
    "color": "yellow"
  },
  {
    "pitch": 54,
    "duration": 3.99,
    "velocity": 0.7874015748031497,
    "time": 28,
    "color": "yellow"
  },
  {
    "pitch": 57,
    "duration": 3.99,
    "velocity": 0.7874015748031497,
    "time": 28,
    "color": "yellow"
  }
]).loopLength(32);